<?xml version="1.0" encoding="UTF-8" standalone="no"?>
<!-- Created with Inkscape (http://www.inkscape.org/) -->

<svg
   xmlns:dc="http://purl.org/dc/elements/1.1/"
   xmlns:cc="http://creativecommons.org/ns#"
   xmlns:rdf="http://www.w3.org/1999/02/22-rdf-syntax-ns#"
   xmlns:svg="http://www.w3.org/2000/svg"
   xmlns="http://www.w3.org/2000/svg"
   xmlns:sodipodi="http://sodipodi.sourceforge.net/DTD/sodipodi-0.dtd"
   xmlns:inkscape="http://www.inkscape.org/namespaces/inkscape"
   width="744.09448819"
   height="1052.3622047"
   id="svg2"
   version="1.1"
   inkscape:version="0.48.3.1 r9886"
   inkscape:export-filename="/home/jarmo/koodi/jumpingGuy/map1.png"
   inkscape:export-xdpi="84.121017"
   inkscape:export-ydpi="84.121017"
   sodipodi:docname="map1.svg">
  <defs
     id="defs4">
    <inkscape:path-effect
       effect="spiro"
       id="path-effect4773"
       is_visible="true" />
    <inkscape:path-effect
       effect="spiro"
       id="path-effect4765"
       is_visible="true" />
    <inkscape:path-effect
       effect="spiro"
       id="path-effect4761"
       is_visible="true" />
  </defs>
  <sodipodi:namedview
     id="base"
     pagecolor="#ffffff"
     bordercolor="#666666"
     borderopacity="1.0"
     inkscape:pageopacity="0.0"
     inkscape:pageshadow="2"
     inkscape:zoom="0.98994949"
     inkscape:cx="347.81301"
     inkscape:cy="571.266"
     inkscape:document-units="px"
     inkscape:current-layer="layer1"
     showgrid="false"
     inkscape:window-width="1366"
     inkscape:window-height="744"
     inkscape:window-x="0"
     inkscape:window-y="24"
     inkscape:window-maximized="1" />
  <metadata
     id="metadata7">
    <rdf:RDF>
      <cc:Work
         rdf:about="">
        <dc:format>image/svg+xml</dc:format>
        <dc:type
           rdf:resource="http://purl.org/dc/dcmitype/StillImage" />
        <dc:title></dc:title>
      </cc:Work>
    </rdf:RDF>
  </metadata>
  <g
     inkscape:label="Layer 1"
     inkscape:groupmode="layer"
     id="layer1">
    <rect
       style="opacity:0.98999987;fill:#000000;fill-opacity:1;fill-rule:nonzero;stroke:#333333;stroke-width:2.9000001;stroke-linecap:round;stroke-linejoin:round;stroke-miterlimit:4;stroke-opacity:1;stroke-dasharray:none"
       id="rect3957"
       width="2957.1428"
       height="1511.4286"
       x="-1393.7848"
       y="-359.86261"
       inkscape:export-xdpi="84.121017"
       inkscape:export-ydpi="84.121017" />
    <path
       style="fill:none;stroke:none;stroke-width:1px;stroke-linecap:butt;stroke-linejoin:miter;stroke-opacity:1;fill-rule:evenodd"
       d="m -953.584,26.047197 c 10.33648,-4.853136 60.50915,5.050762 84.85281,5.050762 12.00074,0 16.41676,-14.994229 31.31473,-13.131983 4.75569,0.594461 28.17049,8.081221 28.28427,8.081221 27.04676,0 53.05301,2.528237 77.78175,6.060915 9.60898,1.372712 49.57981,0.968984 55.55839,-2.020305 7.08184,-3.540924 55.31591,1.010152 66.67007,1.010152 18.5847,0 40.64933,-0.121617 56.56854,-8.08122 8.41278,-4.20639 33.32295,2.020305 43.43656,2.020305"
       id="path4749"
       inkscape:connector-curvature="0" />
    <path
       style="fill:#1a1a1a;fill-opacity:1;stroke:#000000;stroke-width:1px;stroke-linecap:butt;stroke-linejoin:miter;stroke-opacity:1"
       d="m -981.86827,52.311163 c -22.65373,-11.592252 -17.46846,-42.5489753 -11.11168,-61.6193055 2.172,-6.5160185 25.38714,-18.8784035 33.33503,-20.2030505 21.67201,-3.612001 45.69621,5.59573 66.67007,9.091372 10.75289,1.792149 26.08424,-0.396626 36.36549,3.030458 19.89711,6.632371 36.60193,11.467846 56.56854,17.17259336 38.62374,11.03535464 83.66829,6.06091524 123.23861,6.06091524 19.9249,0 40.73277,9.0913734 60.60916,9.0913734 26.65918,0 55.94204,2.29308 81.82235,-2.020306 5.38877,-0.898127 7.37808,-5.709345 12.12183,-8.0812199 24.34043,-12.1702134 37.50307,-12.6056703 70.71068,-7.0710678 5.95008,0.9916799 58.6839,-0.7249959 57.5787,-4.0406102 -1.86163,-5.5848951 -1.29184,-1.2918423 -4.04061,-4.0406101 -2.42941,-2.429409 -4.60996,-21.739703 -21.21321,-27.274119 -3.72525,-1.241753 -8.83756,-12.878169 -6.06091,-10.101525 8.82026,8.820264 -41.35259,-1.010153 -41.41626,-1.010153 -33.1378,0 -40.55942,14.142135 -58.58885,14.142135 -16.0395,0 -22.68172,10.101526 -36.36549,10.101526 -12.22219,0 -30.22625,-11.111678 -34.34518,-11.111678 -27.04037,0 -52.72327,2.020305 -78.7919,2.020305 -13.88298,0 -34.68157,9.65268 -51.51778,4.040611 -7.81322,-2.604407 -49.79299,-6.356434 -52.52793,-9.091373 -3.69929,-3.699287 -12.09461,-5.549034 -18.18275,-7.071068 -12.95363,-3.238407 -29.70876,-2.020305 -42.42641,-2.020305 -8.80445,0 -62.80209,-14.536398 -70.71067,-17.172594 -6.23365,-2.077883 -15.36596,1.913471 -21.21321,-1.010152 -20.87163,-10.435818 -32.85552,-44.579375 -52.52793,-49.497475 -13.99917,-3.49979 -30.11942,7.89606 -40.40612,18.182746 -2.5504,2.550426 -9.4104,1.648233 -11.1117,5.050763 -6.0629,12.125973 -16.0578,25.044543 -23.2335,39.395949 -3.0065,6.013 -28.2842,19.813495 -28.2842,26.263966 0,12.085914 2.9978,37.440972 -2.0203,47.47717 -15.032,30.063839 -30.1836,52.527932 -61.6193,52.527932"
       id="path4751"
       inkscape:connector-curvature="0"
       sodipodi:nodetypes="cssssssssssssssssssssssssssscsssc" />
    <path
       style="fill:#1a1a1a;stroke:none;stroke-width:1px;stroke-linecap:butt;stroke-linejoin:miter;stroke-opacity:1;fill-opacity:1"
       d="m -997.02056,44.229942 c 1.97606,11.909745 15.50461,17.87724 20.20305,27.274119 8.9803,17.960604 10.5627,39.950469 21.2132,58.588849 7.46414,13.06224 20.38162,22.7111 28.28427,35.35534 29.99195,47.98712 72.87137,91.66596 110.10663,134.35029 20.16589,23.11699 47.03954,47.01556 62.62946,73.74113 7.38775,12.66472 13.9076,25.30682 23.23351,37.37565 10.93922,14.15664 24.02072,25.42448 33.33503,39.39595 9.32635,13.98952 64.03931,9.70182 57.5787,16.16244 -1.60454,1.60453 9.04187,22.75318 -10.10153,32.32488 -26.10152,13.05076 -124.78412,-53.77646 -141.42136,-73.74114 -16.46818,-19.76181 -34.2826,-37.74811 -50.50762,-57.57869 -5.76976,-7.05193 -14.64827,-11.23927 -20.20305,-18.18275 -13.76564,-17.20704 -25.31997,-36.10595 -39.39595,-52.52793 -25.47507,-29.72091 -56.20116,-58.64124 -78.7919,-90.91373 -11.43209,-16.33156 -25.67558,-39.65107 -31.31478,-56.56854 -4.9074,-14.7224 -25.403,-28.89731 -34.3451,-41.41626 -2.7031,-3.78423 -0.7638,-9.354106 -3.0305,-13.13198 -7.9753,-13.292132 -7.2509,-20.562654 -12.1218,-30.304577 -3.0406,-6.081244 -17.7962,-17.796213 -20.2031,-20.203051"
       id="path4757"
       inkscape:connector-curvature="0" />
    <path
       style="fill:#1a1a1a;fill-opacity:1;stroke:#000000;stroke-width:10.80000019;stroke-linecap:butt;stroke-linejoin:miter;stroke-miterlimit:4;stroke-opacity:1;stroke-dasharray:none"
       d="m -686.55112,499.67836 c 61.76711,26.5611 134.08181,27.54853 196.55112,2.68383 61.12764,-24.33067 112.3271,-73.38934 137.70839,-134.08826 25.3813,-60.69892 24.14826,-132.3232 -4.80131,-191.40359 C -386.04249,117.78996 -442.62052,72.607768 -506.99748,59.036587 -571.37444,45.465406 -642.10304,64.40016 -690,109.50504 c -38.21412,35.98649 -61.25317,87.53312 -62.85714,140 -0.98916,32.35599 6.05008,65.19977 22.0856,93.32006 16.03552,28.1203 41.29462,51.26189 71.51092,62.87497 30.2163,11.61309 65.27693,11.14911 94.34774,-3.09088 14.5354,-7.11999 27.47167,-17.54801 37.30306,-30.40553 9.8314,-12.85753 16.52205,-28.13844 19.03839,-44.12719 3.73558,-23.73576 -2.01542,-48.83107 -15.71428,-68.57143"
       id="path4771"
       inkscape:path-effect="#path-effect4773"
       inkscape:original-d="m -686.55112,499.67836 c 54.41711,31.0688 144.44715,14.26248 196.55112,2.68383 286.89938,-63.75542 73.06146,-620.40837 -200,-392.85715 -35.88634,29.90528 -74.00448,89.83701 -62.85714,140 25.68521,115.58345 244.28571,146.58962 244.28571,78.57143 0,-83.10456 -22.38562,-181.98407 -15.71428,-68.57143"
       inkscape:connector-curvature="0"
       sodipodi:nodetypes="cssssc" />
    <path
       style="fill:none;stroke:none;stroke-width:1px;stroke-linecap:butt;stroke-linejoin:miter;stroke-opacity:1"
       d="m -755.71429,410.93361 c 239.46441,-41.34996 164.50189,173.07331 0,8.57143"
       id="path4779"
       inkscape:connector-curvature="0" />
    <path
       style="fill:#1a1a1a;stroke:none;stroke-width:1px;stroke-linecap:butt;stroke-linejoin:miter;stroke-opacity:1;fill-opacity:1"
       d="m -768.57143,378.07647 c 20.96761,27.1679 31.41834,37.14286 62.85714,37.14286 5.02649,0 9.4891,3.08656 14.28572,4.28571 2.30986,0.57747 7.14286,-2.38095 7.14286,0 0,2.07025 14.78151,8.81933 20,11.42857 8.18191,4.09096 18.6552,7.56283 25.71428,12.85714 2.25257,1.68943 5.36193,7.5016 8.57143,8.57143 4.5481,1.51604 11.99792,4.7852 15.71429,5.71429 1.9074,0.47685 20,-0.72873 20,5.71428 0,7.52303 -0.84667,19.12715 -4.28572,24.28572 -6.94087,10.4113 -20.57395,0.28697 -28.57143,4.28571 -4.48737,2.24369 -18.68951,1.00354 -25.71428,0 -2.10819,-0.30117 -3.5847,-2.85714 -5.71429,-2.85714 -5.91153,0 4.63234,4.40126 -4.28571,1.42857 -20.75759,-6.91919 -69.6624,-35.37668 -80,-45.71428 -3.78249,-3.7825 -6.48419,-2.85715 -10,-2.85715 -1.82424,0 -7.4268,-7.4268 -8.57143,-8.57143"
       id="path4783"
       inkscape:connector-curvature="0" />
    <path
       style="fill:#1a1a1a;stroke:#000000;stroke-width:1px;stroke-linecap:butt;stroke-linejoin:miter;stroke-opacity:1;fill-opacity:1"
       d="m -377.79705,7.8644513 c 5.38748,0 10.77496,0 16.16244,0 9.37485,0 27.16031,1.1239567 34.34519,-6.0609153 2.41525,-2.41525826 5.66596,-9.7065723 8.08122,-12.121831 2.4386,-2.438607 15.25641,-10.101525 18.18274,-10.101525 0.67344,0 -0.47619,1.544115 0,2.020305 0.95595,0.955944 28.28427,-0.92979 28.28427,2.020305 0,3.285474 -3.78559,0.510032 -2.0203,4.04061 1.21218,2.4243665 4.84873,3.6365495 6.06091,6.0609156 0.60234,1.2046773 -0.60234,2.835933 0,4.0406102 1.94581,3.8916199 18.35661,20.2030512 24.24366,20.2030512 3.29803,0 2.91699,-3.741718 8.08122,-2.020305 9.96362,3.321206 15.38195,1.630057 24.24367,6.060915 10.27003,5.135019 32.55937,-3.923363 44.44671,2.020305 3.11696,1.558483 11.1825,-2.959638 12.12183,-2.020305 1.2074,1.207397 -2.18371,4.04061 2.0203,4.04061 0.67344,0 -0.47619,-1.544115 0,-2.020305 0.95238,-0.952381 4.04061,-1.34687 4.04061,0 0,3.476132 -3.08869,3.684482 4.04061,6.060915 14.40127,4.800422 47.808114,-6.740126 56.568546,2.020305 3.803779,3.803779 4.919238,11.419468 8.08122,16.162441 0.839653,1.259479 20.815534,0.234637 22.223356,0 4.492059,-0.748676 36.325284,-4.060714 36.365492,-4.04061 9.271654,4.635827 9.247557,9.143434 18.1827458,12.12183 3.67157541,1.223859 24.0778512,-0.331619 24.2436612,0 0.602338,1.204678 -0.602339,2.835933 0,4.040611 0.125115,0.25023 5.217309,2.353398 6.060915,4.04061 3.809156,7.618311 -20.2063515,6.064216 -24.2436609,10.101525 -3.9772649,3.977265 -3.0842859,7.34021 -4.0406102,12.121831 -4.9580782,24.79039 -12.5559779,13.34906 -30.3045759,22.22336 -1.616245,0.80812 -4.444672,-0.80813 -6.060916,0 -6.947128,3.47356 -4.784293,5.4226 -10.101525,8.08122 -3.437053,1.71852 -4.100905,-1.96001 -8.081221,2.0203 -0.189578,0.18958 -5.767184,5.47346 -6.060915,6.06092 -0.602338,1.20467 1.204677,3.43827 0,4.04061 -2.279032,1.13951 -8.02033,0.63284 -10.101525,2.0203 -4.593959,3.06264 0.486795,9.61473 -2.020305,12.12183 -2.478091,2.47809 -24.197626,0 -28.284272,0 -3.46025,0 -1.56587,-6.51534 -4.04061,-4.04061 -1.69587,1.69587 -5.88849,9.9291 -8.08122,12.12183 -1.80749,1.80749 -19.6899,3.52746 -20.20305,4.04061 -0.47619,0.47619 0,1.34687 0,2.02031 -3.36718,1.34687 -6.99178,2.17476 -10.10153,4.04061 -1.15493,0.69296 0.95238,3.08823 0,4.04061 -3.48941,3.48941 -8.63675,10.65706 -12.12183,14.14213 -4.6941,4.69411 -12.56777,8.52717 -18.18274,14.14214 -1.02905,1.02905 0,10.86181 0,12.12183 0,2.23257 -3.05097,45.77991 -2.02031,46.46702 5.50857,3.67238 15.78481,3.66297 20.20305,8.08122 2.08349,2.08349 4.97362,6.06091 10.10153,6.06091 0.67343,0 -2.02031,-0.67343 -2.02031,0 0,0.95238 1.16847,1.59439 2.02031,2.02031 2.99681,1.4984 4.27329,-2.02031 6.06091,-2.02031 2.59085,0 11.35331,4.80914 14.14214,2.02031 2.67652,-2.67653 7.66497,-1.81218 12.12183,-4.04061 0.60234,-0.30117 -0.47619,-1.54412 0,-2.02031 3.98454,-3.98454 27.767854,-11.29966 34.345186,-12.12183 18.314565,-2.28932 40.682734,-1.56092 58.588848,2.02031 6.461096,1.29222 13.6775326,-0.93222 20.2030509,0 2.74873709,0.39267 5.3045766,2.0203 8.0812204,2.0203 0.1721531,0 37.5579267,-1.60637 38.3857967,-2.0203 10.606782,-5.30339 24.421687,-9.73307 36.365492,-12.12183 1.981072,-0.39622 4.144285,0.63887 6.060915,0 10.981978,-3.66066 21.597611,-13.48063 32.324881,-16.16244 1.95998,-0.49 4.2539,0.9035 6.06092,0 0.85183,-0.42592 -2.02031,-1.06793 -2.02031,-2.02031 0,-1.90476 2.45575,-2.98404 4.04061,-4.04061 5.21007,-3.47338 5.80235,-0.32868 10.10153,-6.06091 2.67911,-3.57216 7.19842,-9.72816 8.08122,-14.14214 0.39621,-1.98107 -0.90351,-4.2539 0,-6.06092 5.85325,-11.70651 19.51844,-18.49991 26.26396,-30.30457 6.14564,-10.75486 -2.98911,-1.56347 6.06092,-12.12183 10.69185,-12.47383 25.08755,-19.02664 36.36549,-30.30458 4.09634,-4.09634 6.00518,-10.04579 10.10152,-14.14213 10.34118,-10.341176 18.85084,-21.004758 28.28428,-32.324886 4.23215,-5.078582 11.94883,-7.562226 14.14213,-14.142135 8.74787,-26.243612 5.28803,-72.909997 -8.08122,-96.974645 -1.63524,-2.94344 -4.42567,-5.137779 -6.06091,-8.08122 -4.01492,-7.226852 -4.67662,-17.733775 -10.10153,-24.243661 -12.07146,-8.047643 -1.57556,0.741238 -8.08122,-10.101526 -4.26864,-7.114395 -14.11157,-13.106515 -20.20305,-18.182745 -20.98105,-17.484202 -45.20064,-24.135962 -72.73098,-20.203052 -11.58053,1.65436 -22.61376,7.1036 -34.34519,8.08122 -9.819986,0.81833 -41.657389,-0.92977 -50.507627,2.02031 -2.86534,0.95511 -2.88462,4.90492 -4.040611,6.06091 -1.765289,1.76529 -3.251632,-2.0203 -4.04061,-2.0203 -0.673435,0 0.673435,2.0203 0,2.0203 -0.952381,0 -1.067924,-2.0203 -2.020305,-2.0203 -0.952381,0 -1.116797,1.71913 -2.020305,2.0203 -5.344642,1.78155 -14.520372,0 -20.203051,0 -20.2030508,0 -40.406102,0 -60.609153,0 -9.090734,0 -21.39376,-2.2277 -30.304576,0 -2.336573,0.58414 -8.33735,4.040612 -10.101525,4.040612 -3.285474,0 -0.510033,-3.785592 -4.040611,-2.020302 -5.308929,2.654461 -14.002907,8.081217 -20.203046,8.081217 -2.77665,0 -5.30458,-2.020305 -8.08122,-2.020305 -14.57294,0 -31.99791,6.014204 -46.46702,8.08122 -28.37855,4.054079 -58.49457,-4.054079 -86.87312,0 -13.79357,1.97051 0.30151,1.439852 -10.10153,4.04061 -5.02384,1.255961 -13.59653,-2.293105 -18.18274,0 -0.60234,0.30117 0.60234,1.719136 0,2.020305 -9.36317,4.681585 -18.70973,2.547286 -26.26397,10.101526 -2.69374,2.69374 -13.4687,-2.69374 -16.16244,0 -1.71142,1.711419 -3.88875,3.888748 -6.06091,6.060915 -7.80695,7.806948 -17.62899,15.424094 -24.24367,24.243661 -4.48077,5.974372 -6.74776,12.808682 -12.12183,18.182746 -1.85066,1.85066 -11.89143,5.830522 -12.12183,6.060915 -0.95238,0.952381 0.42592,2.762857 0,4.04061 -0.44555,1.33666 -5.55703,5.5570345 -6.06091,6.0609156 -4.42665,4.4266456 -21.98411,4.2798556 -22.22336,4.0406102 -3.08409,-3.08409 -6.17614,-6.0609152 -6.06091,-6.0609152 0.67343,0 0.47619,1.5441146 0,2.020305 -3.12524,3.1252388 -7.78012,-1.7192043 -8.08122,-2.020305 -0.44569,-0.4456875 -8.08122,0.3415007 -8.08122,0 0,-2.1295886 4.15615,1.0679241 6.06091,2.020305 2.00569,1.0028458 21.41616,8.8884208 22.22336,8.0812204 0.73888,-0.7388852 1.38694,-6.0609153 4.04061,-6.0609153 0.95238,0 1.06792,2.0203051 2.0203,2.0203051 2.76254,0 4.74661,-4.7466093 6.06092,-6.0609152 0.50596,-0.5059653 25.57646,-5.3734096 30.30457,-10.1015256 3.78031,-3.780307 0.93062,-18.182746 2.02031,-18.182746 0.67343,0 0.67343,2.020305 0,2.020305 -4.20401,0 -0.81291,-2.833213 -2.02031,-4.04061 -1.01015,-1.010152 -5.05076,1.010153 -6.06091,0 -0.67157,-0.671573 0.67157,-3.369037 0,-4.04061 -8.2385,-8.238497 -48.11277,-12.246681 -60.60915,-8.08122 -2.13967,0.713222 -16.66594,4.04061 -18.18275,4.04061 -0.56619,0 -1.46024,-4.600676 -4.04061,-2.020305 -2.70945,2.709455 -11.33543,3.647409 -16.16244,6.060915 -4.4528,2.226401 -8.08122,5.606873 -8.08122,4.04061"
       id="path4859"
       inkscape:connector-curvature="0" />
    <path
       style="fill:#1a1a1a;fill-opacity:1;stroke:#000000;stroke-width:1px;stroke-linecap:butt;stroke-linejoin:miter;stroke-opacity:1"
       d="m -163.64471,205.85435 c 0.67343,2.69374 1.47576,5.3585 2.0203,8.08122 0.96675,4.83374 2.02031,16.05649 2.02031,20.20305 0,2.12959 -0.51446,7.56676 -2.02031,6.06092 -2.102,-2.10201 5.27194,-3.25164 2.02031,0 -0.84735,0.84734 -10.59207,11.35694 -12.12183,12.12183 -8.46804,4.23401 -21.72836,5.56592 -24.24366,8.08122 -2.99353,2.99352 2.0203,14.66765 2.0203,18.18274 0,3.34381 2.02031,8.04105 2.02031,10.10153 0,0.95238 -1.59439,1.16847 -2.02031,2.0203 -1.74606,3.49212 -0.70436,10.71311 0,12.12183 0.42592,0.85184 2.02031,1.06793 2.02031,2.02031 0,1.98865 -3.6795,4.76283 -2.02031,8.08122 0.87154,1.74308 0.6031,14.14214 0,14.14214 -1.84161,0 4.04061,-5.71848 4.04061,0 0,0.67343 -1.54411,-0.4762 -2.0203,0 -0.95238,0.95238 -1.34687,4.04061 0,4.04061 0.95238,0 1.06792,-2.02031 2.0203,-2.02031 1.34687,0 0,2.69374 0,4.04061 0,0.83189 -0.53479,5.52613 0,6.06092 0.47619,0.47619 2.02031,-0.67344 2.02031,0 0,3.34502 -6.06092,14.00844 -6.06092,18.18274 0,2.85947 2.02031,-6.45162 2.02031,-8.08122 0,-6.52469 2.43654,-10.63621 10.10152,-8.08122 3.76907,1.25636 5.03275,2.51638 8.08122,4.04061 1.61625,0.80812 4.44467,-0.80812 6.06092,0 1.70367,0.85184 2.13585,4.04061 4.04061,4.04061 0.67343,0 -0.60234,-1.71913 0,-2.0203 4.99155,-2.49578 18.20848,4.05347 22.22335,6.06091 7.38317,3.69159 28.739,-1.19529 38.3858,2.02031 2.475,0.825 5.606221,-0.825 8.081221,0 4.245039,1.41501 4.746764,4.04061 10.101525,4.04061 5.271541,0 0,-2.31073 0,-4.04061 0,-1.34687 3.438272,-1.20468 4.04061,0 0.903508,1.80701 -1.428571,4.63234 0,6.06091 2.032687,2.03269 4.173052,4.30549 6.060916,8.08122 1.765289,3.53058 -2.020305,0.75514 -2.020305,4.04061 0,0.67344 1.719135,-0.60234 2.020305,0 1.166702,2.33341 0,9.29843 0,12.12183 0,1.23288 -0.787189,7.29404 0,8.08122 2.305201,2.3052 4.04061,1.37697 4.04061,8.08122 0,0.67344 -1.544115,-0.47619 -2.020305,0 -1.010153,1.01016 -1.010153,3.03046 -2.020305,4.04061 -4.414652,4.41466 0.213795,5.63333 -2.020305,10.10153 -0.454319,0.90864 -10.101526,1.59208 -10.101526,4.04061 0,0.95238 2.020305,1.06792 2.020305,2.0203 0,1.90477 -4.04061,2.13585 -4.04061,4.04061 0,0.56619 4.600676,1.46024 2.020305,4.04062 -0.952381,0.95238 -3.088229,-0.95239 -4.04061,0 -1.690988,1.69098 -2.291687,7.80983 2.020305,12.12183 0.952381,0.95238 3.088229,-0.95239 4.04061,0 6.353014,6.35301 9.590913,5.17288 16.162441,10.10152 5.789177,4.34188 11.534824,8.79787 18.182746,12.12183 2.204958,1.10248 10.772987,8.08122 10.101525,8.08122 -0.576904,0 -4.020068,-4.03034 -8.08122,-6.06091 -1.904762,-0.95238 -3.931327,-2.02031 -6.060915,-2.02031 -0.673435,0 0.673435,2.02031 0,2.02031 -4.204013,0 -0.812908,-2.83322 -2.020306,-4.04061 -2.748563,-2.74857 -2.387021,1.65358 -6.060915,-2.02031 -2.580371,-2.58037 2.020305,-3.47442 2.020305,-4.04061 0,-0.95238 -2.020305,-1.06792 -2.020305,-2.0203 0,-2.73024 11.928346,-7.16781 18.182746,-4.04061 0.281228,0.14061 17.447334,-1.2849 18.182746,-2.02031 1.010152,-1.01015 -1.010153,-5.05076 0,-6.06091 0.952381,-0.95239 4.04061,-1.34687 4.04061,0 0,0.67343 -2.69374,0 -2.020305,0 8.213442,0 29.5922652,3.68445 34.345186,6.06091 13.932903,6.96645 29.662015,9.91794 44.446712,14.14214 4.188825,1.1968 13.548055,12.12183 16.162441,12.12183 0.768407,0 -6.751618,-6.06092 -4.04061,-6.06092 1.765289,0 -2.020305,6.70051 -2.020305,0 0,-0.67343 2.020305,-0.67343 2.020305,0 0,2.02031 -2.020305,6.06092 0,6.06092 0.952381,0 1.067924,-2.02031 2.020305,-2.02031 1.34687,0 -1.204677,3.43827 0,4.04061 1.204677,0.60234 2.835933,-0.60234 4.04061,0 0.649991,0.325 0,9.03654 0,10.10153 0,2.70221 2.484804,2.9493 4.04061,6.06091 1.077496,2.15499 -1.077496,5.92623 0,8.08122 0.975317,1.95064 4.040611,8.1595 4.040611,10.10153 0,0.67343 -1.544115,-0.47619 -2.020306,0 -1.505846,1.50585 1.346871,4.04061 2.020306,6.06091 1.185768,3.55731 -2.020306,5.88783 -2.020306,8.08122 0,5.38748 6.224319,-2.34711 2.020306,6.06092 -0.606092,1.21218 -5.454824,2.82843 -6.060916,4.04061 -0.602338,1.20468 0.952381,3.08823 0,4.04061 -0.673435,0.67343 -1.067924,-2.02031 -2.020305,-2.02031 -1.34687,0 0.952381,3.08823 0,4.04061 -1.88988,1.88988 -10.101525,2.73794 -10.101525,2.02031 0,-4.24698 6.732189,-0.67127 8.08122,-2.02031 1.793084,-1.79308 7.307713,-3.2671 10.101526,-6.06091 0.47619,-0.47619 -0.673435,-2.02031 0,-2.02031 1.505846,0 2.579724,1.65509 4.04061,2.02031 3.718656,0.92966 7.777208,-2.02031 12.12183,-2.02031 12.800276,0 -3.053352,0.98726 -6.060915,-2.0203 -1.064794,-1.06479 -0.955511,-2.97582 -2.020305,-4.04061 -1.505847,-1.50585 -6.060915,0.10928 -6.060915,-2.02031 0,-0.67343 2.020305,-0.67343 2.020305,0 0,0.67344 -2.69374,0 -2.020305,0 10.068163,0 22.120121,-0.10323 28.284271,6.06092 0.93435,0.93435 44.27825,2.0203 54.54824,2.0203 3.19309,0 6.15906,4.04061 8.08122,4.04061 0.95238,0 1.16847,-1.59438 2.0203,-2.0203 1.7613,-0.88065 29.06246,1.39924 30.30458,2.0203 0.74183,0.37092 7.89689,1.83598 8.08122,2.02031 0.47619,0.47619 -0.67344,2.0203 0,2.0203 1.50585,0 2.61204,-1.54411 4.04061,-2.0203 1.27775,-0.42592 3.08823,0.95238 4.04061,0 0.67343,-0.67344 2.0203,-2.97269 2.0203,-2.02031 0,0.67344 -2.69374,0 -2.0203,0 4.60733,0 16.16027,2.02139 20.20305,0 0.60234,-0.30116 -0.67343,-2.0203 0,-2.0203 0.67344,0 0.67344,2.0203 0,2.0203 -2.78633,0 0,-22.21449 0,-26.26396 0,-5.57768 4.62996,-32.91423 6.06092,-34.34519 2.05956,-2.05956 3.93845,2.22462 6.06091,-2.0203 2.01615,-4.03231 0.99682,-27.28746 0,-28.28427 -0.47619,-0.47619 -2.0203,0.67343 -2.0203,0 0,-0.95239 1.59438,-1.16847 2.0203,-2.02031 0.6099,-1.21981 -0.93391,-5.127 0,-6.06091 0.47619,-0.4762 2.02031,0.67343 2.02031,0 0,-2.99196 -4.39567,-3.3305 -2.02031,-8.08122 0.30117,-0.60234 1.71914,0.60233 2.02031,0 1.13013,-2.26027 2.0203,-15.07877 2.0203,-18.18275 0,-4.44024 2.22381,-18.081 10.10153,-14.14214 12.5602,6.2801 -2.46868,19.75468 4.04061,26.26397 1.96338,1.96338 0.0569,6.11784 2.0203,8.08122 0.95238,0.95238 3.08823,-0.95238 4.04061,0 0.78719,0.78719 0,6.84834 0,8.08122 0,1.34687 1.34687,4.04061 0,4.04061 -0.67343,0 0,-2.69374 0,-2.0203 0,1.34687 -0.95238,3.08822 0,4.04061 0.67344,0.67343 2.02031,-2.97269 2.02031,-2.02031 0,9.65717 -5.87192,0.0945 2.0203,4.04061 1.90476,0.95238 -2.0203,3.93133 -2.0203,6.06092 0,0.95238 2.0203,1.06792 2.0203,2.0203 0,3.86952 -4.04061,10.51404 -4.04061,14.14214 0,0.67343 2.02031,-0.67344 2.02031,0 0,0.95238 -1.59439,1.16847 -2.02031,2.0203 -0.84104,1.68208 1.28151,6.79972 0,8.08122 -0.47619,0.47619 -1.71913,-0.60234 -2.0203,0 -1.63534,3.27069 0,12.33223 0,16.16244 0,2.24867 4.04061,4.9351 4.04061,8.08122 0,0.95238 -2.69374,1.34687 -2.02031,2.02031 2.02031,2.0203 2.02031,6.06091 4.04061,8.08122 2.76556,2.76556 5.58485,-0.47607 10.10153,4.04061 0.93391,0.93391 4.84111,-0.6099 6.06091,0 4.16924,2.08462 2.02031,7.6395 2.02031,6.06091 0,-6.02134 3.94651,1.92621 4.04061,2.02031 0.47619,0.47619 2.0203,-0.67344 2.0203,0 0,0.95238 -2.0203,1.06792 -2.0203,2.0203 0,0.67344 2.0203,-0.67343 2.0203,0 0,1.80429 -3.45756,-6.06091 -4.04061,-6.06091 -0.67343,0 0.67344,2.0203 0,2.0203 -0.7897,0 1.05202,-17.13072 0,-18.18274 -0.95238,-0.95238 -4.04061,1.34687 -4.04061,0 0,-0.95238 2.02031,-1.06793 2.02031,-2.02031 0,-0.95238 -2.02031,-1.06792 -2.02031,-2.0203 0,-0.67344 1.54412,0.47619 2.02031,0 0.67343,-0.67344 -2.02031,-1.06793 -2.02031,-2.02031 0,-0.95238 1.59439,-1.16847 2.02031,-2.0203 0.20721,-0.41442 0.28491,-5.776 0,-6.06092 -0.47619,-0.47619 -2.02031,0.67344 -2.02031,0 0,-0.95238 2.02031,-3.92506 2.02031,-6.06091 0,-3.36718 0,-6.73435 0,-10.10153 0,-0.67343 -0.67344,-2.0203 0,-2.0203 0.67343,0 -0.67344,2.0203 0,2.0203 3.96648,0 5.91092,-7.93122 8.08122,-10.10152 1.76529,-1.76529 3.25163,2.0203 4.04061,2.0203 0.67343,0 -0.67344,-2.0203 0,-2.0203 1.28112,0 10.10152,13.25175 10.10152,14.14213 0,0.67344 -1.54411,-0.47619 -2.0203,0 -0.67344,0.67344 2.0203,1.06793 2.0203,2.02031 0,0.67343 -1.54411,-0.47619 -2.0203,0 -0.67344,0.67343 2.0203,1.06792 2.0203,2.0203 0,0.95238 -1.59438,1.16847 -2.0203,2.02031 -0.20721,0.41442 -0.28492,5.776 0,6.06091 0.47619,0.47619 2.0203,-0.67343 2.0203,0 0,0.67344 -1.54411,-0.47619 -2.0203,0 -2.75615,2.75615 2.0203,9.20962 2.0203,10.10153 0,3.86283 2.45828,21.78539 0,24.24366 -0.47619,0.47619 -2.0203,-0.67344 -2.0203,0 0,1.90476 3.18877,2.33694 4.04061,4.04061 0.60234,1.20468 -0.95238,3.08823 0,4.04061 2.15829,2.15829 -0.65862,-2.34962 4.04061,0 3.6852,1.8426 -2.46661,2.8073 4.04061,6.06091 5.93235,2.96618 18.18275,-1.44865 18.18275,-8.08122 0,-0.67343 -2.02031,0.67344 -2.02031,0 0,-1.24419 7.78713,2.02031 8.08122,2.02031 2.96051,0 16.17491,-2.00783 18.18275,0 C 377.6584,537.04574 268.54212,308.8899 272.74119,308.8899"
       id="path4861"
       inkscape:connector-curvature="0"
       sodipodi:nodetypes="csssssssssssssssssssssssssssssssssssssssssssssssssssssssssssscsssssssssssssssssssssssssssssssssssssssssssssssscsssssssssssssssssssssssssssssssssssssssssssssssssscsssssssssssssscsssssssssssssc" />
    <path
       style="fill:#1a1a1a;stroke:none;stroke-width:1px;stroke-linecap:butt;stroke-linejoin:miter;stroke-opacity:1;fill-opacity:1"
       d="m -598.01031,-28.50104 c 4.2458,-8.843357 14.43076,-1.154464 20.20305,-4.040611 0.60234,-0.301169 -0.67343,-2.020305 0,-2.020305 2.12959,0 3.93133,2.020305 6.06092,2.020305 7.30972,0 1.447,-2.502637 6.06091,-4.04061 1.58271,-0.527569 29.48814,-4.448828 34.34519,-2.020305 1.34687,0.673435 0.67344,3.367175 2.02031,4.04061 5.64715,2.823575 17.87269,2.020305 22.22335,2.020305 1.7698,0 10.90589,-0.804359 12.12183,-2.020305 0.89281,-0.892805 5.24217,-8.08122 6.06092,-8.08122 0.67343,0 -0.67344,2.020305 0,2.020305 0.47206,0 14.14213,-9.576195 14.14213,-6.060915 0,0.623755 -3.35613,-1.36895 -2.0203,-4.04061 0.89478,-1.789569 5.9573,-8.081221 6.06091,-8.081221 0.95239,0 1.06793,2.020305 2.02031,2.020305 0.95238,0 1.1168,-1.719135 2.0203,-2.020305 4.87413,-1.62471 23.67567,-2.304304 28.28428,0 0.85183,0.425918 1.06792,2.020305 2.0203,2.020305 1.50585,0 2.61204,-1.544114 4.04061,-2.020305 8.18396,-2.727985 21.75036,0 30.30458,0 3.48653,0 21.60864,2.635014 24.24366,0 0.47619,-0.47619 -0.67344,-2.020305 0,-2.020305 0.84513,0 4.03561,4.045607 6.06091,2.020305 1.01016,-1.010152 3.03046,-1.010152 4.04061,-2.020305 0.47619,-0.47619 -0.67343,-2.020305 0,-2.020305 0.67344,0 -0.47619,1.544115 0,2.020305 2.04678,2.046779 18.58624,0 22.22336,0 4.28124,0 14.26223,-1.960255 18.18275,0 0.85183,0.425918 1.06792,2.020305 2.0203,2.020305 0.67344,0 -0.47619,-1.544114 0,-2.020305 0.95238,-0.952381 2.83593,-0.602338 4.04061,0 3.69874,1.849372 4.1701,19.944076 2.02031,24.243661 -0.42592,0.851836 -2.02031,1.067924 -2.02031,2.020305 0,0.673435 1.54412,-0.47619 2.02031,0 1.42857,1.428572 2.0203,6.060916 0,6.060916 -0.95239,0 -1.34687,-2.69374 -2.02031,-2.020305 -2.12959,2.129588 -1.91102,5.951631 -4.04061,8.08122 -1.85029,1.850294 -5.31045,0 -4.04061,0 1.50585,0 -0.51446,4.04061 -2.0203,4.04061 -6.2488,0 -12.12184,9.4645707 -12.12184,6.060915 0,-0.952381 2.44623,1.16847 2.02031,2.020305 -0.85184,1.7036713 -4.04061,2.1358487 -4.04061,4.0406106 0,0.6734351 1.54411,-0.4761904 2.0203,0 0.28492,0.2849149 0.20722,5.64649376 0,6.06091532 -3.5025,7.00501878 -9.25739,5.21678048 -14.14213,10.10152548 -0.67434,0.6743416 0.67434,3.3662676 0,4.0406106 -2.01725,2.017245 -9.39049,1.109857 -12.12183,2.020305 -12.01591,4.005304 -11.15858,2.501931 -20.20305,-2.020305 -1.59544,-0.797717 -4.3571,0.567939 -6.06092,0 -2.3035,-0.767835 -3.63281,-4.0406106 -6.06091,-4.0406106 -0.95238,0 -1.06793,2.0203046 -2.02031,2.0203046 -2.42092,0 -9.72278,-2.841086 -12.12183,-4.0406097 -6.25974,-3.1298711 -17.39754,1.711531 -24.24366,0 -1.46089,-0.3652214 -2.53476,-2.0203051 -4.04061,-2.0203051 -4.9214,0 -5.46014,3.5674322 -10.10153,2.0203051 -7.4932,-2.4977344 -21.29155,1.4760542 -28.28427,-2.0203051 -4.25157,-2.1257865 -10.96058,-10.1015255 -16.16244,-10.1015255 -0.95238,0 -1.06792,2.0203051 -2.0203,2.0203051 -0.95238,0 -1.06793,-2.0203051 -2.02031,-2.0203051 -0.67343,0 0.67344,2.0203051 0,2.0203051 -0.95238,0 -1.16847,-1.5943874 -2.0203,-2.0203051 -4.68281,-2.3414036 -10.86137,1.7670229 -16.16244,0 -3.36218,-1.1207271 -6.24232,2.0203051 -8.08122,2.0203051 -0.95238,0 -1.16847,-1.5943874 -2.02031,-2.0203051 -4.40336,-2.2016809 -14.61998,0.2389232 -18.18274,2.0203051 -5.85452,2.9272583 -23.79636,-2.0203051 -32.32489,-2.0203051 -8.08122,0 -16.16244,0 -24.24366,0 -1.34687,0 -5.72419,2.0203051 -4.04061,2.0203051 2.4965,0 2.02031,-2.8332131 2.02031,-4.0406102"
       id="path4863"
       inkscape:connector-curvature="0" />
    <path
       style="fill:#000000;stroke:#000000;stroke-width:1px;stroke-linecap:butt;stroke-linejoin:miter;stroke-opacity:1;fill-opacity:1"
       d="m 165.66502,185.6513 c -2.69374,1.34687 -6.73435,6.73435 -8.08122,4.04061 -1.34687,-2.69374 10.21081,-6.1702 8.08122,-4.04061 -10.1449,10.1449 -20.62629,4.83914 -30.30458,0 -3.79473,-1.89737 -6.98109,2.0203 -10.10152,2.0203 -5.1909,0 -19.4398,3.27736 -22.22336,6.06092 -0.47619,0.47619 -2.02031,0.67343 -2.02031,0 0,-0.67344 2.02031,-0.67344 2.02031,0 0,0.95238 -1.59439,1.16847 -2.02031,2.0203 -1.496559,2.99313 0,10.72186 0,14.14214 0,13.78916 8.11873,26.18895 6.06092,30.30458 -2.08414,4.16828 -11.824356,10.10152 -16.162441,10.10152 -0.673435,0 0.476191,-1.54411 0,-2.0203 -0.04901,-0.049 -42.993626,1.53594 -44.446712,2.0203 -12.720164,4.24006 -12.544771,12.12183 -30.304576,12.12183 -7.5808206,0 -11.967586,-0.15424 -16.162441,4.04061 -0.47619048,0.47619 -2.0203051,-0.67343 -2.0203051,0 0,6.46781 3.5068008,2.02031 4.0406102,2.02031 0.046001,0 3.0535084,6.10701 4.0406102,8.08122 1.1210891,2.24218 9.3719377,8.08122 10.1015257,8.08122 0.140444,0 1.514121,-3.28355 4.04061,-2.02031 4.098333,2.04917 10.948528,3.32379 16.162441,2.02031 1.684605,-0.42115 6.966196,-6.06092 8.08122,-6.06092 2.129589,0 3.931327,2.02031 6.060915,2.02031 2.7093,0 7.392226,-4.04061 10.101526,-4.04061 0.04454,0 9.373869,8.44505 14.142135,6.06091 4.740429,-2.37021 7.439893,-3.39928 10.101526,-6.06091 1.678488,-1.67849 16.826936,-3.19658 20.203046,-4.04061 0.20075,-0.0502 12.12184,-7.09431 12.12184,-4.04061 0,0.67343 -2.4965,-0.47619 -2.02031,0 1.20403,1.20403 6.06092,5.47253 6.06092,6.06091 0,0.95238 -1.34687,2.69374 -2.02031,2.02031 -0.95238,-0.95238 3.2935,-1.12067 4.04061,0 3.53058,5.29587 0.75514,3.53058 4.04061,10.10152 0.30117,0.60234 -0.67343,-2.0203 0,-2.0203 2.75063,0 5.46891,7.48922 6.06092,8.08122 2.26416,2.26416 9.22723,6.63392 12.12183,8.08122 8.72838,4.36419 22.13905,-2.06245 30.30457,2.0203 4.41855,2.20928 49.44716,7.60131 52.52794,6.06092 0.85183,-0.42592 1.06792,-2.02031 2.0203,-2.02031 1.26968,0 25.37964,4.92494 28.28427,2.02031 11.09059,-11.09059 8.08122,-11.55134 8.08122,-22.22336"
       id="path4865"
       inkscape:connector-curvature="0" />
    <path
       style="fill:#1a1aff;stroke:#000000;stroke-width:1px;stroke-linecap:butt;stroke-linejoin:miter;stroke-opacity:1;fill-opacity:0"
       d="m -185.86807,321.01174 c -2.69374,0.67344 -7.40778,4.71405 -8.08122,2.02031 -0.67343,-2.69374 10.85787,-2.02031 8.08122,-2.02031 -9.3718,0 -28.95034,5.15809 -36.36549,10.10153 -2.62679,1.75119 -4.34838,10.40929 -8.08122,14.14213 -1.01015,1.01015 -5.05076,-1.01015 -6.06092,0 -0.75953,0.75953 -6.81537,7.4483 -8.08122,8.08122 -1.2198,0.60991 -5.127,-0.93391 -6.06091,0 -2.87471,2.87471 -9.83144,3.77052 -10.10153,4.04061 -1.06479,1.0648 -2.0203,5.54646 -2.0203,4.04061 0,-0.52418 11.42597,0.69586 12.12183,0 8.78338,-8.78338 19.12892,-9.33429 34.34519,-20.20305 1.09599,-0.78285 -1.20468,-3.43827 0,-4.04061 3.80952,-1.90476 8.3123,-2.13585 12.12183,-4.04061 1.18111,-0.59056 4.31368,-6.82538 8.08122,-8.08122 3.44045,-1.14682 8.75465,-7.40778 10.10152,-4.04061 2.34422,5.86054 -24.24366,1.08372 -24.24366,8.08122"
       id="path4869"
       inkscape:connector-curvature="0" />
    <path
       style="fill:#1a1a1a;stroke:#000000;stroke-width:1px;stroke-linecap:butt;stroke-linejoin:miter;stroke-opacity:1;fill-opacity:1"
       d="m -187.14286,319.50504 c -1.19047,0.47619 -2.57021,0.6276 -3.57143,1.42857 -0.37184,0.29747 0.21296,1.00265 0,1.42857 -0.49745,0.9949 -18.71782,5.28837 -22.14285,7.85714 -1.32549,0.99412 -2.43007,4.43307 -2.85715,5.71429 -0.10881,0.32645 -4.1385,4.18757 -4.28571,4.28571 -4.10323,2.73549 -10.23596,1.2484 -14.28571,4.28572 -0.42592,0.31944 -0.28837,1.10913 -0.71429,1.42857 -0.60234,0.45175 -1.54052,0.26253 -2.14286,0.71429 -1.88434,1.41325 -3.86694,4.86041 -6.42857,5.71428 -1.54692,0.51564 -2.73879,0.91293 -4.28571,1.42857 -1.45755,0.48585 -1.77263,3.3003 -2.85715,3.57143 -0.92394,0.23099 -2.0053,-0.42592 -2.85714,0 -1.65604,0.82802 -3.42274,3.75996 -5,4.28572 -1.63265,0.54421 -1.18564,-0.72154 -2.14286,0.71428 -1.2303,1.84546 -0.10296,1.73746 -0.71428,3.57143 -0.10648,0.31944 -0.47619,0.47619 -0.71429,0.71429 -0.23809,0.71428 -0.56662,1.40455 -0.71428,2.14285 -1.10301,5.51505 1.83498,12.75861 -0.71429,17.85715 0.26698,1.55608 -1.19048,0.23809 -1.42857,0.71428 -1.71561,3.43121 0.70605,0.43022 -4.28571,1.42857 -0.33018,0.066 -0.37757,0.71429 -0.71429,0.71429 -0.85846,0 1.53583,-0.82155 2.14286,-1.42857 1.62918,-1.62919 0.86912,-3.80369 2.14285,-5.71429 0.13208,-0.19811 0.6676,0.23347 0.71429,0 1.01015,-1.35678 -0.20203,-2.8715 0,-4.28571 1.27927,-8.95489 4.01262,-12.58405 9.28571,-17.85715 0.86363,-0.86362 1.25813,-2.98161 2.14286,-3.57142 0.39622,-0.26415 1.09186,0.33671 1.42857,0 2.04424,-2.04424 -1.78221,-0.89461 0.71429,-2.14286 2.08482,-1.04241 4.98699,-1.06493 7.14286,-2.14286 0.21295,-0.10648 -0.22588,-0.63899 0,-0.71428 0.9035,-0.30117 2.1837,0.67343 2.85714,0 1.27654,-1.27655 1.24212,-1.33535 2.85714,-2.14286 0.65371,-0.32685 2.3725,0.48464 2.85714,0 0.11612,-0.11612 4.35521,-2.64221 5,-2.85714 0.45176,-0.15059 1.03236,0.26414 1.42858,0 2.04051,-1.36034 3.18629,-4.74325 5.71428,-6.42858 0.81682,-0.54454 1.97909,-0.27526 2.85714,-0.71428 4.45279,-2.2264 10.87073,-4.44216 13.57143,-7.14286 2.77199,-2.77198 2.9655,-9.28571 7.85715,-9.28571 0.53239,0 -1.05211,0.33782 -1.42858,0.71428 -0.53239,0.5324 -0.18188,1.61046 -0.71428,2.14286 -0.52055,0.52055 -2.15263,0.72406 -2.85714,1.42857 -0.76303,0.76303 -1.55361,4.34823 -2.85715,5 -1.23831,0.61916 -2.88803,0.49679 -4.28571,1.42857 -2.34445,1.56297 -9.39824,4.39824 -10.71429,5.71429 -0.33671,0.33672 0.15059,0.97682 0,1.42857 -0.21296,0.63888 -1.1274,0.82623 -1.42857,1.42857 -0.76738,1.53477 0.71964,4.28037 -0.71428,5.71429 -2.20239,2.20238 1.30952,-4.64286 -0.71429,1.42857 0.3656,1.59693 -1.26021,0.20921 -1.42857,0.71428 -2.09202,6.27607 2.58281,10.98863 -2.85714,16.42858 -0.19588,0.19587 -0.62694,1.42857 -1.42858,1.42857 -0.14734,0 1.36863,-1.90308 1.42858,-2.14286 0.44454,-1.7782 1.00289,-1.2915 1.42857,-2.14286 1.34209,-2.68418 0.45499,-6.20107 5.71428,-3.57143 0.95596,0.47798 1.69971,1.69971 2.14286,2.14286 0.2381,0.2381 1.90476,0.47619 2.14286,0.71429 0.26662,0.26662 0.44026,8.40519 0,9.28571 -0.71318,1.42635 -3.14486,3.43258 -3.57143,4.28572 -0.21296,0.42591 0.21296,1.00265 0,1.42857 -0.21296,0.42592 -1.16443,-0.39622 -1.42857,0 -1.60804,2.41206 -1.61042,5.36369 -2.85715,7.85714 0.26699,1.55608 -1.19047,0.2381 -1.42857,0.71429 -0.26837,0.53675 -0.27451,3.13165 -0.71428,3.57142 -0.16836,0.16836 -0.60781,-0.21295 -0.71429,0 -1.34369,2.68738 0.6825,13.63501 -0.71428,16.42858 -0.0696,0.13926 -1.27359,0.5593 -1.42858,0.71428 -1.51698,1.51698 -1.33246,3.99741 -1.42857,4.28572 -0.3394,1.01819 -1.02854,1.02854 -1.42857,1.42857 -0.33672,0.33672 0.47619,1.42857 0,1.42857 -0.23809,0 -0.23809,-0.71429 0,-0.71429 1.31993,0 -4.78843,2.7161 -5,2.85715 -0.8405,0.56033 -1.28625,1.60747 -2.14286,2.14285 -3.23913,2.02446 -6.92803,2.95203 -10,5 -0.1981,0.13207 -0.47619,0 -0.71428,0 -0.71429,0.2381 -1.51639,0.29664 -2.14286,0.71429 -1.59108,1.06072 -3.63215,3.75359 -4.28571,5.71428 -0.0315,0.0944 -0.45857,2.85715 -0.71429,2.85715 -0.95238,0 -0.42592,-2.00531 0,-2.85715 1.16395,-2.32789 5.04031,-5 7.85714,-5 3.05065,0 12.62499,-2.07141 14.28572,-4.28571 0.42593,-0.56791 -0.24006,-2.13697 0,-2.85714 0.60185,-1.80556 1.88332,-3.31189 2.85714,-4.28572 0.67344,-0.67343 -0.23099,-1.93319 0,-2.85714 0.42214,-1.68854 2.28658,-2.71773 2.85714,-5 0.75443,-3.01771 1.0607,-9.61782 2.14286,-12.14286 0.54689,-1.27607 1.59597,-2.29536 2.14286,-3.57143 0.19104,-0.44576 0.20935,-2.52051 0.71428,-2.85714 0.62647,-0.41764 1.51639,-0.29664 2.14286,-0.71428 0.34356,-0.22904 1.16051,-5.35632 1.42857,-6.42858 0.57533,-2.30132 3.83324,-4.21458 2.85715,-7.14285 -0.61168,-1.83503 -0.6364,-4.12993 -1.42858,-5.71429 -0.10648,-0.21296 -0.63899,0.22588 -0.71428,0 -0.30897,-0.92691 0.71636,-4.99792 0,-5.71428 -0.26297,-0.26297 -4.75949,-0.24051 -5,0 -0.2381,0.23809 -0.47619,0.95238 -0.71429,0.71428 -0.67343,-0.67343 0,-1.90476 0,-2.85714 0,-1.7648 -0.29774,-15.41654 0,-15.71429 0.2381,-0.23809 1.90476,-0.47619 2.14286,-0.71428 0.37646,-0.37646 0.18189,-1.42857 0.71429,-1.42857 0.23809,0 0,0.47619 0,0.71428"
       id="path4871"
       inkscape:connector-curvature="0" />
    <path
       style="fill:#1a1a1a;stroke:#000000;stroke-width:1px;stroke-linecap:butt;stroke-linejoin:miter;stroke-opacity:1;fill-opacity:1"
       d="m 266.68027,310.91021 c 10.87503,2.3502 23.21481,3.50436 34.34519,2.02031 5.30266,-0.70702 12.57003,-4.52673 17.17259,-6.06092 17.97302,-5.991 37.19115,-9.55032 55.55839,-14.14213 21.61372,-5.40343 44.50313,-5.06957 65.65992,-12.12183 11.16285,-3.72095 9.51666,-4.73935 21.2132,-8.08122 5.65426,-1.61551 11.51833,-2.42511 17.17259,-4.04061 13.42986,-3.83711 18.97376,-7.55086 32.32489,-9.09138 4.01397,-0.46315 8.0842,0.1553 12.12183,0 16.48905,-0.63419 32.96434,-1.67147 49.49747,-1.01015 10.89964,0.43599 21.5055,2.35425 32.32488,3.03046 6.38518,0.39907 12.84467,-0.79353 19.1929,0 2.17843,0.2723 34.71896,12.44002 29.29442,15.15229 -1.90476,0.95238 -6.85182,-3.99758 -6.06091,-2.02031 1.75415,4.38539 11.27529,11.81594 15.15229,14.14214 8.1659,4.89954 18.45178,6.5417 26.26396,12.12183 8.61685,6.15489 11.63058,16.42741 19.1929,23.23351 8.91896,8.02706 20.31886,11.27328 29.29443,19.1929 8.60126,7.58935 15.60961,16.80404 25.25381,23.2335 2.25877,1.50585 4.71404,2.69374 7.07107,4.04061 4.04061,0 8.6136,-2.0047 12.12183,0 1.87197,1.0697 -3.52621,2.51606 -5.05077,4.04061 -1.12649,1.1265 1.62286,4.86858 2.02031,6.06092 2.40162,7.20485 -0.0228,0.85017 1.01015,8.08122 0.40686,2.848 2.67362,5.22652 3.03046,8.08122 0.8689,6.95124 2.91786,54.94232 1.01015,61.61931 -1.32444,4.63556 -4.02216,8.76321 -6.06091,13.13198 -1.62798,3.48852 -4.10056,11.17163 -7.07107,14.14213 -0.5324,0.5324 -1.56855,0.40782 -2.02031,1.01016 -0.63887,0.85183 -0.34498,2.19899 -1.01015,3.03045 -0.75841,0.94802 -2.3248,1.03239 -3.03046,2.02031 -2.00014,2.8002 -3.8863,7.38326 -6.06091,10.10153 -1.89536,2.36919 -7.76741,2.92281 -8.08122,6.06091 -0.88691,8.86905 0.12276,6.4292 2.0203,12.12183 1.57365,4.72093 0.66393,23.92597 -1.01015,27.27412 -1.00513,2.01027 -4.40954,2.20477 -6.06091,3.03046 -13.30494,6.65246 -30.84457,4.04061 -45.45687,4.04061 -6.73435,0 -13.52777,-0.89004 -20.20305,0 -2.11091,0.28145 -3.96568,1.63935 -6.06091,2.0203 -4.54176,0.82578 -9.55836,-0.57297 -14.14214,0 -6.20987,0.77624 -11.74561,5.25628 -18.18275,6.06092 -3.11706,0.38963 -29.17272,2.67508 -33.33503,1.01015 -7.40047,-2.96019 -15.2477,-5.7401 -23.23351,-7.07107 -8.09346,-1.34891 -17.08789,0.58328 -25.25381,0 -4.74981,-0.33927 -9.72082,-0.25178 -14.14214,-2.0203 -7.11497,-2.84599 0.80803,-3.2774 -6.06091,-4.04061 -5.91817,-0.65758 -12.31077,0.97866 -18.18275,0 -3.66152,-0.61026 -7.37283,-1.64642 -11.11168,-2.02031 -8.05382,-0.80538 -26.13093,-1.36904 -34.34518,0 -5.51739,0.91957 -12.3753,2.06606 -18.18275,1.01016 -9.38818,-1.70695 -19.47373,-3.28866 -28.28427,-5.05077 -6.56596,-1.31319 -21.33231,-0.1191 -25.25381,-4.04061 -2.17008,-2.17007 -10.24398,1.44401 -13.13199,0 -0.30117,-0.15058 0.30117,-0.85957 0,-1.01015 -3.55068,-1.77534 -9.61954,-0.26409 -13.13198,-2.02031 -4.082,-2.041 -7.49301,-2.23127 -11.11168,-4.04061 -0.60234,-0.30116 -1.48156,0.40407 -2.0203,0 -4.76158,-3.57117 -2.79318,-10.48795 -8.08122,-13.13198"
       id="path4873"
       inkscape:connector-curvature="0" />
    <path
       style="fill:#101010;stroke:none;stroke-width:1px;stroke-linecap:butt;stroke-linejoin:miter;stroke-opacity:1;fill-opacity:1"
       d="m 478.81231,266.4635 c 1.24117,0.0332 -0.98778,8.1036 0,9.09138 3.7892,3.7892 -2.02031,35.49773 -2.02031,43.43655 0,6.22179 1.7305,18.04201 0,23.23351 -1.7004,5.1012 -2.0203,6.21578 -2.0203,12.12183 0,1.06793 -1.01016,2.55427 -1.01016,3.03046 0,0.47619 0.7972,0.58424 1.01016,1.01015 2.43268,4.86537 -2.81754,16.16244 2.0203,16.16244 1.68359,0 0,-3.36717 0,-5.05076 0,-1.21332 0.53109,-3.98859 0,-5.05076 -0.23891,-0.47782 -2.0203,-2.56113 -2.0203,-3.03046 0,-0.53977 2.13893,-2.91183 1.01015,-4.04061 -0.66167,-0.66167 0,-0.86809 0,-4.04061 0,-2.03464 -1.01015,-6.58583 -1.01015,-7.07107 0,-1.53328 1.78828,-2.71636 1.01015,-5.05076 -0.15059,-0.45175 -1.01015,-0.53396 -1.01015,-1.01015 0,-4.18008 3.11216,3.27556 1.01015,-3.03046 -0.61589,-1.84768 -1.01015,-2.65846 -1.01015,-5.05076 0,-2.69555 1.01015,-5.75343 1.01015,-8.08122 0,-0.33672 -0.77206,0.23809 -1.01015,0 -0.94768,-0.94767 0,-3.70596 0,-4.04061 0,-1.01016 -1.01016,-3.03046 0,-3.03046 0.47619,0 0.53396,1.01015 1.01015,1.01015 0.33672,0 0,-0.67343 0,-1.01015 0,-2.02031 0,-4.04061 0,-6.06092 0,-5.72419 0,-11.44839 0,-17.17259 0,-0.11859 0.88063,-7.9517 1.01015,-8.08122 0.6037,-0.6037 2.02031,1.09185 2.02031,-1.01015 0,-2.2682 -2.50241,-1.53821 -1.01016,-3.03046 0.017,-0.017 2.02031,-6.399 2.02031,-5.05076 0,1.58805 -1.01015,-4.09429 -1.01015,-5.05076 0,-4.18616 -1.01016,-8.01135 -1.01016,-12.12184"
       id="path4877"
       inkscape:connector-curvature="0" />
    <path
       style="fill:none;stroke:none;stroke-width:1px;stroke-linecap:butt;stroke-linejoin:miter;stroke-opacity:1"
       d="m 480.83261,273.53457 c -1.64645,-4.41991 -1.67728,7.41409 -3.03046,6.06092 -0.33671,-0.33672 0.53397,-1.01016 1.01016,-1.01016 1.01015,0 0,2.02031 0,3.03046 0,1.01015 1.01015,3.03046 0,3.03046 -0.33672,0 0.33671,-1.01015 0,-1.01015 -1.15803,0 -1.82801,10.29382 -1.01016,11.11167 2.41387,2.41387 0,0.98499 0,3.03046 0,0.67344 2.32148,-0.60234 2.02031,0 -0.42592,0.85184 -1.71914,1.1168 -2.02031,2.02031 -0.15058,0.45175 0.53397,1.01015 1.01016,1.01015 0.33671,0 -0.33672,-1.01015 0,-1.01015 0.67343,0 0.47619,1.54411 0,2.0203 -0.2381,0.2381 -1.01016,-0.33672 -1.01016,0 0,0.47619 1.34687,0.67344 1.01016,1.01015 -0.33672,0.33672 -0.53397,-1.01015 -1.01016,-1.01015 -0.67343,0 0.47619,1.54412 0,2.02031 -0.60369,0.6037 -2.0203,-1.09186 -2.0203,1.01015 0,0.33672 0.77206,-0.2381 1.01015,0 0.67344,0.67343 -0.67343,3.36717 0,4.04061 0.2381,0.23809 1.01015,-0.33672 1.01015,0 0,0.47619 -0.79719,0.58423 -1.01015,1.01015 -1.00196,2.00391 2.15296,7.13739 4.04061,8.08122 0.92448,0.46224 3.35522,-0.68539 4.04061,0 0.884,0.884 2.88486,3.03046 3.03046,3.03046 0.47619,0 0.67343,-1.34687 1.01015,-1.01015 0.33672,0.33671 -1.01015,0.53396 -1.01015,1.01015 0,0.47619 0.67343,-1.34687 1.01015,-1.01015 0.5324,0.53239 0.47776,1.48791 1.01015,2.0203 0.2381,0.2381 0,-0.67343 0,-1.01015 0.33672,0 0.77206,-0.2381 1.01016,0 0.47619,0.47619 -0.60234,2.32147 0,2.0203 0.16421,-0.0821 2.75266,-3.30825 4.04061,-2.0203 0.47619,0.47619 -0.67344,2.0203 0,2.0203 0.39449,0 1.13766,-1.89279 2.0203,-1.01015 0.34433,0.34433 2.90204,2.02031 4.04061,2.02031 1.0648,0 2.27754,-1.76308 3.03046,-1.01016 0.45135,0.45135 2.65117,3.03046 4.04061,3.03046 2.4253,0 4.7827,-0.24736 7.07107,-1.01015 1.31708,-0.43903 3.05892,-0.0285 4.04061,-1.01015 0.23809,-0.2381 -0.33672,-1.01016 0,-1.01016 0.47619,0 0.58423,0.7972 1.01015,1.01016 1.5571,0.77855 13.86444,0.85856 15.15229,0 0.79243,-0.52829 1.22788,-1.49202 2.0203,-2.02031 0.6061,-0.40406 2.52539,0.50508 3.03046,0 1.78338,-1.78338 2.97842,-3.26998 6.06092,-4.04061 6.74085,-1.68521 4.49851,0.70488 10.10152,-3.03046 1.45888,-0.97258 1.65858,-3.03045 4.04061,-3.03045 0.67344,0 -0.60234,2.32147 0,2.0203 1.08588,-0.54294 1.16184,-2.17199 2.02031,-3.03046 1.39597,-1.39597 4.89054,-1.86008 6.06091,-3.03045 0.5324,-0.5324 0.47776,-1.48791 1.01016,-2.02031 2.13157,-2.13157 6.96007,-2.91946 9.09137,-5.05076 1.24708,-1.24708 1.22382,-3.85604 2.0203,-5.05076 1.27436,-1.91154 9.26412,-6.14729 11.11168,-7.07107 1.08529,-0.54265 4.70848,-4.02392 5.05076,-5.05076 0.15059,-0.45176 -1.01015,-0.53397 -1.01015,-1.01016 0,-1.06479 2.07808,-0.53396 3.03046,-1.01015 3.47248,-1.73624 5.05076,-6.23041 5.05076,-5.05076 0,0.33672 -1.01015,0.33672 -1.01015,0 0,-1.2906 1.79698,0.22332 2.0203,0 1.64293,-1.64293 2.22258,-3.23273 4.04061,-5.05076 0.53941,-0.53941 4.62829,-8.27712 1.01016,-7.07107 -2.17041,0.72347 -2.72813,2.72813 -4.04061,4.04061 -0.52285,0.52285 -2.50761,1.49745 -3.03046,2.0203 -0.33672,0.33672 1.01015,0.53396 1.01015,1.01016 0,1.09223 -1.01015,2.63622 -1.01015,4.04061 0,0.61643 0.39359,3.64701 0,4.04061 -0.47619,0.47619 -1.71914,-0.60234 -2.02031,0 -0.97284,1.94568 -1.13871,3.15902 -3.03045,5.05076 -3.20765,3.20765 -1.93586,-0.16889 -3.03046,2.0203 -0.30117,0.60234 0.67343,2.02031 0,2.02031 -0.64994,0 -1.93462,-1.18152 -3.03046,1.01015 -0.78076,1.56153 -1.16226,3.18257 -2.0203,4.04061 -0.0483,0.0483 -9.67182,2.02031 -10.10153,2.02031 -1.34687,0 1.01015,-2.35703 1.01015,-1.01016 0,0.93633 -2.94274,-0.0439 -3.03045,0 -2.53609,1.26805 -2.62724,3.63739 -4.04061,5.05077 -1.39809,1.39808 -2.59453,-0.43594 -3.03046,0 -1.65654,1.65653 -0.591,1.60114 -2.02031,3.03045 -0.53239,0.5324 -1.68358,0.33672 -2.0203,1.01016 -0.47619,0.95238 -0.25723,3.78338 -1.01015,3.03045 -0.68348,-0.68347 1.91511,-2.92526 -1.01016,0 -0.33671,0 -0.77205,-0.23809 -1.01015,0 -0.23809,0.2381 0.30117,0.85957 0,1.01016 -1.83996,0.91998 -4.01289,-0.0554 -4.04061,0 -0.45175,0.9035 0.71429,2.31617 0,3.03045 -4.73223,4.73224 -2.05642,6.13314 -4.04061,10.10153 -0.38449,0.76899 -2.41528,2.0203 -3.03046,2.0203 -0.47619,0 1.01015,-0.53396 1.01015,-1.01015 0,-0.33672 -0.77205,-0.23809 -1.01015,0 -0.53239,0.5324 -0.33672,1.68359 -1.01015,2.02031 -0.54758,-0.54758 -1.02941,-1.5056 -2.02031,-1.01016 -0.67343,0.33672 -1.4879,0.47776 -2.0203,1.01016 -0.2381,0.23809 0.33672,1.01015 0,1.01015 -0.47619,0 -1.34687,-0.67344 -1.01015,-1.01015 0.33671,-0.33672 1.01015,0.53396 1.01015,1.01015 0,0.75292 -1.34687,-0.67344 -2.02031,-1.01015 -1.49656,-0.74828 -5.36092,0 -7.07106,0 -1.78417,0 -9.39261,-1.71907 -10.10153,-1.01016 -0.24921,0.24922 -3.70389,2.35703 -5.05076,1.01016 -0.2381,-0.2381 0.23809,-0.77206 0,-1.01016 -2.76105,-2.76104 -14.62343,3.51175 -16.16244,5.05077 -0.46244,0.46244 -10.64924,0.46244 -11.11168,0 -1.75543,-1.75543 -5.92492,-1.88431 -6.06092,-2.02031 -0.23809,-0.23809 0.33672,-1.01015 0,-1.01015 -2.33207,0 -5.2158,1.85527 -7.07106,0 -0.75153,-0.75153 0,-8.15056 0,-11.11168 0,-0.33672 0.23809,0.77206 0,1.01015 -1.22553,1.22553 -2.25995,1.54103 -3.03046,0 -1.33298,-2.66596 0,-6.14633 0,-7.07106 0,-0.90452 1.01015,-3.7105 1.01015,-3.03046 0,2.44694 -0.94106,-3.83332 -1.01015,-4.04061 -0.30117,-0.90351 -2.02031,-1.06793 -2.02031,-2.02031 0,-0.33671 0.77206,0.2381 1.01016,0 0.39359,-0.39359 0,-3.42417 0,-4.04061 0,-0.75292 1.01015,-1.26738 1.01015,-2.0203 0,-0.75292 -2.02031,-0.25723 -2.02031,-1.01015 0,-0.75293 1.48791,-0.47776 2.02031,-1.01016 0.75266,-0.75266 -1.01015,-0.98044 -1.01015,-2.0203 0,-5.5593 -0.50946,-10.09276 2.0203,-15.15229 z"
       id="path4881"
       inkscape:connector-curvature="0" />
    <path
       style="fill:#101010;stroke:none;stroke-width:1px;stroke-linecap:butt;stroke-linejoin:miter;stroke-opacity:1;fill-opacity:1"
       d="m 478.57143,266.29075 c 0.37534,1.03931 -0.41024,2.54583 0,3.57143 0.18758,0.46895 0.88385,0.60248 1.07143,1.07143 3.19914,7.99784 9.59952,11.36481 16.78571,15.35714 1.39498,0.77499 2.43611,2.18218 3.57143,3.21429 1.77906,1.61733 3.84734,3.1493 5.71429,4.64286 3.28192,2.62554 0.26708,-0.31706 3.57143,1.78571 3.8912,2.47622 0.48799,0.991 3.92857,3.57143 8.57742,6.43307 -2.66525,-2.50775 4.64285,2.14286 0.71019,0.45193 1.12839,1.25985 1.78572,1.78571 2.37979,1.90383 3.21625,2.24044 6.07143,2.5 2.69381,0.24489 2.06281,1.52446 3.92857,2.85714 1.01138,0.72242 2.40336,0.64668 3.57143,1.07143 0.60249,0.21909 1.19047,0.47619 1.78571,0.71429 0.71429,0.47619 1.35043,1.09839 2.14286,1.42857 2.32127,0.9672 5.12731,0.29558 7.5,0.71428 2.07743,0.36661 3.9831,1.48739 6.07143,1.78572 0.82495,0.11785 1.70181,-0.23946 2.5,0 0.48377,0.14513 0.6329,0.82084 1.07143,1.07143 3.26889,1.86793 -0.16844,-0.88678 2.5,0.71428 0.28873,0.17324 0.40479,0.58165 0.71428,0.71429 1.06938,0.45831 3.85031,0.71428 5,0.71428 0.84179,0 1.66111,-0.42705 2.5,-0.35714 0.63888,0.0532 1.14684,0.66105 1.78572,0.71429 0.83888,0.0699 1.66068,-0.29258 2.5,-0.35715 7.60609,-0.58508 -2.68455,0.35715 3.92857,0.35715 2.68617,0 6.19986,-0.24279 8.57143,-1.42857 2.54603,-1.27302 5.01636,-2.64087 6.78571,-5 1.27073,-1.69432 2.12425,-4.51141 3.92857,-5.71429 2.92852,-1.95234 6.58095,-2.9418 9.64286,-4.64286 3.78594,-2.1033 6.76783,-5.34125 10,-8.21428 1.85612,-1.64988 4.78463,-2.99892 6.42857,-4.64286 1.12242,-1.12242 1.00959,-3.34931 1.78571,-4.64286 0.70981,-1.183 2.57652,-4.00508 3.57143,-5 1.06355,-1.06354 0.46523,0.53415 1.42857,-1.07143 0.98505,-1.64173 2.19396,-5.40824 3.57143,-6.78571 1.60455,-1.60455 -0.14603,1.64762 1.42857,-0.71429 0.24746,-0.37117 0.68607,-6.42857 0.71429,-6.42857 0.11905,0 0.11905,0.35715 0,0.35715 -0.11905,0 -0.11905,-0.35715 0,-0.35715 0.5324,0 0.89617,0.71429 1.42857,0.71429 0.29465,0 1.0139,-0.77182 1.42857,-0.35714 0.42923,0.42923 -0.24988,1.78571 0.35715,1.78571 0.33671,0 0.37756,-0.71429 0.71428,-0.71429 2.8123,0 -1.96979,1.42858 0.71429,1.42858 0.33671,0 0.41311,-0.86487 0.71428,-0.71429 0.0831,0.0415 0.51486,4.128 0.35715,4.28571 -0.53983,0.53983 -2.44878,1.53031 -2.85715,2.14286 -0.20882,0.31324 -0.14832,0.75819 -0.35714,1.07143 -0.19811,0.29716 -1.07143,0.35714 -1.07143,0 0,-0.32922 0.45501,0.61641 -0.35714,1.42857 -0.12397,0.12397 -0.19725,-0.15989 -1.07143,0.71429 -0.0842,0.0842 0.11905,-0.35715 0,-0.35715 -0.2381,0 -1.19048,0.71429 -1.42857,0.71429 -0.81463,0 -1.53751,-0.67797 -2.5,-0.35714 -1.22123,0.40707 -0.26577,0.29622 -1.42857,1.07143 -0.26186,0.17457 -1.2249,0.15346 -1.42857,0.35714 -0.74255,0.74254 -1.47326,1.47325 -2.14286,2.14286 -0.1968,0.1968 -0.36217,1.43359 -0.71429,1.78571 -0.199,0.199 -0.25376,2.547 -0.35714,2.85714 -0.21896,0.65687 0.4623,2.75199 0,3.21429 -0.11481,0.11481 -5.23405,3.33131 -5.71429,3.57143 -0.54164,0.27082 -1.87411,0.71428 -2.5,0.71428 -0.16835,0 0.18879,-0.35714 0.35715,-0.35714 0.34245,0 -2.5,1.74649 -2.5,1.42857 0,-0.16836 0.47619,0.2381 0.35714,0.35714 -0.16477,0.16477 -1.31776,1.20696 -1.42857,1.42858 -0.15972,0.31943 0.35714,1.07142 0,1.07142 -0.11905,0 0.0842,-0.44132 0,-0.35714 -0.92852,0.92852 -0.15872,0.67458 -0.35714,1.07143 -0.2662,0.5324 -1.12233,0.56102 -1.42858,1.07143 -0.32694,0.5449 -0.82287,2.91144 -1.42857,3.21428 -0.15058,0.0753 -0.23809,-0.47619 -0.35714,-0.35714 -0.16836,0.16836 -0.33672,1.051 -0.71429,1.42857 -0.72248,0.72248 -1.7636,0.5805 -2.5,1.07143 -0.62671,0.41781 -1.33204,1.55888 -2.5,2.14286 -0.5646,0.2823 -0.63856,-0.71429 -1.07142,-0.71429 -0.33672,0 -0.43412,0.52751 -0.71429,0.71429 -0.21429,0.14286 -0.89286,-0.17857 -1.07143,0 -0.46087,0.46087 -0.40469,1.11898 -1.07143,1.78571 -0.62422,0.62423 -3.992,0.21029 -5,0.71429 -0.10648,0.0532 0.0842,0.27296 0,0.35714 -0.30351,0.30351 -0.71428,0.47619 -1.07143,0.71429 -0.099,0.066 -0.35714,-0.11905 -0.35714,0 0,0.95238 0.95238,0.47619 0,1.42857 -0.30351,0.30351 -0.73625,0.44615 -1.07143,0.71428 -0.26293,0.21035 -0.37757,0.71429 -0.71428,0.71429 -0.2662,0 0.35714,-0.44809 0.35714,-0.71429 0,-0.16835 -0.2381,-0.47619 -0.35714,-0.35714 -0.16836,0.16836 0.10648,0.50133 0,0.71429 -0.0532,0.10648 -0.27297,-0.0842 -0.35715,0 -0.55548,0.55548 -0.95071,1.50571 -1.42857,2.14285 -0.93679,1.24906 -2.58889,1.90424 -3.57143,3.21429 -0.31943,0.42592 -0.33782,1.05211 -0.71428,1.42857 -0.3582,0.3582 -1.95435,1.15575 -2.5,1.42857 -0.63749,0.31875 -5.65052,1.07143 -6.42857,1.07143 -0.16836,0 -0.18879,-0.35714 -0.35715,-0.35714 -0.7161,0 1.5264,0.71428 -0.71428,0.71428 -0.11905,0 0.0842,-0.27296 0,-0.35714 -0.11883,-0.11882 -1.3565,0.024 -1.42857,0 -0.15972,-0.0532 -0.18879,-0.35714 -0.35715,-0.35714 -0.16835,0 -0.19742,0.3039 -0.35714,0.35714 -0.64175,0.21392 -1.48494,-0.16448 -2.14286,0 -0.90703,0.22676 -0.61806,0.74636 -1.78571,0.35714 -0.40721,-0.13573 -0.64804,-0.64372 -1.07143,-0.71428 -0.58078,-0.0968 -3.0567,0.71428 -3.57143,0.71428 -0.23809,0 -1.19047,-0.71428 -1.42857,-0.71428 -0.58079,0 -0.0902,0.6692 -0.71428,0.35714 -0.71429,-0.35714 -1.72054,-0.81161 -2.5,-1.07143 -0.50124,-0.16708 -1.31539,0.23517 -1.78572,0 -0.33672,-0.16836 0.0193,-1.07143 -0.35714,-1.07143 -0.43286,0 -0.50683,0.99659 -1.07143,0.71429 -1.48634,-0.74317 0.3818,0.0247 -0.35714,-0.71429 -0.25254,-0.25253 -0.73262,0.11294 -1.07143,0 -2.04151,-0.6805 2.15904,-0.0682 -1.07143,-0.71428 -1.49187,-0.29838 -2.88206,0 -4.28571,0 -0.2381,0 -1.19048,-0.71429 -1.42858,-0.71429 -0.16836,0 -0.18878,0.35715 -0.35714,0.35715 -1.08044,0 -1.77565,-1.56942 -2.85714,-1.78572 -0.25928,-0.0519 -1.83342,-0.46029 -2.14286,-0.35714 -0.17548,0.0585 -0.7253,0.70327 -1.07143,0.35714 -0.0842,-0.0842 0.11905,-0.35714 0,-0.35714 -0.16836,0 -0.23809,0.47619 -0.35714,0.35714 -0.16836,-0.16836 0.16836,-0.54593 0,-0.71428 -0.7293,-0.7293 -0.30225,0.43948 -1.07143,-0.71429 -0.26414,-0.39621 0.47619,-1.42857 0,-1.42857 -0.33672,0 -0.41312,0.5637 -0.71428,0.71428 -0.10648,0.0532 0.0842,-0.27296 0,-0.35714 -0.17858,-0.17857 -0.53572,-0.17857 -0.71429,-0.35714 -0.16836,-0.16836 -0.60781,0.21296 -0.71429,0 -0.10648,-0.21296 0.2381,-0.71429 0,-0.71429 -0.26619,0 -0.11904,0.83334 -0.35714,0.71429 -0.33672,-0.16836 -0.14832,-0.75819 -0.35714,-1.07143 -0.27227,-0.40841 -1.08149,-0.0101 -1.42857,-0.35714 -0.16836,-0.16836 0.10648,-0.50133 0,-0.71429 -0.16836,-0.33672 -0.86261,-0.0439 -1.07143,-0.35714 -0.13207,-0.19811 0.21296,-0.60781 0,-0.71429 -0.2381,-0.11904 -0.44809,0.35715 -0.71429,0.35715 -0.61061,0 -1.03814,-0.81115 -1.42857,-1.07143 -0.53571,-0.35715 -0.35714,0.71428 -1.07143,0 -0.16836,-0.16836 0.10648,-0.50133 0,-0.71429 -0.031,-0.0621 -2.32724,-1.68206 -2.5,-1.78571 -1.39594,-0.83757 0.0261,0 -1.78571,0 -0.0519,0 -1.35184,-0.71429 -1.07143,-0.71429 0.11001,0 -0.48318,0.4727 -0.71429,0.35714 -0.30117,-0.15058 -0.37756,-0.71428 -0.71428,-0.71428 -0.42479,0 -1.67134,0.47152 -2.14286,0 -0.48772,-0.48773 0.57762,-0.13666 -0.71428,-1.42857 -0.0842,-0.0842 0.11904,-0.35715 0,-0.35715 -0.2662,0 -0.44809,0.35715 -0.71429,0.35715 -0.33672,0 -0.37757,-0.71429 -0.71429,-0.71429 -0.26063,0 -1.75893,0.93303 -2.14285,0.35714 -0.19811,-0.29716 0.25253,-0.81889 0,-1.07142 -0.18823,-0.18824 -0.44809,0.35714 -0.71429,0.35714 -0.23809,0 0.10648,-0.50133 0,-0.71429 -0.18858,-0.37715 -0.53945,-0.72175 -0.71428,-1.07143 -0.61872,-1.23743 -1.9645,0.26755 -2.85715,-1.07142 -0.13207,-0.19811 0.13207,-0.51618 0,-0.71429 -0.0222,-1.00562 -0.80523,-0.0909 -1.07143,-0.35714 -0.60484,-0.60484 -0.46659,-0.82373 -1.07142,-1.42857 -0.16836,-0.16836 -0.50133,0.10648 -0.71429,0 -0.38392,-0.19196 -0.65501,-0.61019 -1.07143,-0.71429 -0.16333,-0.0408 -0.21706,0.45053 -0.35714,0.35714 -0.35714,-0.23809 -0.41077,-0.76791 -0.71429,-1.07143 -0.27574,-0.27574 -1.49508,-1.04106 -1.78571,-1.42857 -0.14286,-0.19047 0.16836,-0.54592 0,-0.71428 -0.0257,-0.0257 -1.38342,0.0903 -1.42857,0 -0.10648,-0.21296 0.16836,-0.54593 0,-0.71429 -0.16836,-0.16836 -0.48841,0.0753 -0.71429,0 -0.79207,-0.26402 -2.25984,-1.9027 -2.85714,-2.5 -0.18823,-0.18823 -0.0909,-0.71428 -0.35714,-0.71428 -0.16836,0 -0.18879,0.35714 -0.35715,0.35714 -0.51286,0 -0.3073,-0.71429 -0.35714,-0.71429 -0.40003,0 -0.74978,0.3394 -1.42857,0 -0.84681,-0.4234 -1.48526,-1.64965 -2.14286,-2.14285 -0.30117,-0.22588 -0.80523,-0.091 -1.07143,-0.35715 -0.16836,-0.16836 0.2381,-0.71428 0,-0.71428 -0.33672,0 -0.37757,0.71428 -0.71428,0.71428 -0.2662,0 -0.11905,-0.59524 -0.35715,-0.71428 -1.6345,-0.81725 1.51551,2.58693 -1.07142,0 -0.81189,-0.81188 -0.31854,-0.78185 -1.07143,-1.78572 -1.89778,-2.53037 0.41998,1.49142 -1.42857,-0.35714 -0.16836,-0.16836 0,-0.47619 0,-0.71429 -0.35715,-0.11904 -0.77026,-0.13126 -1.07143,-0.35714 -0.82786,-0.62089 -0.49034,-1.91891 -1.07143,-2.5 -0.17857,-0.17857 -0.89286,0.17857 -1.07143,0 -0.34708,-0.34708 -0.0101,-1.08149 -0.35714,-1.42857 -0.70227,-0.70227 -2.23692,-2.44366 -2.85715,-2.85714 -0.22149,-0.14766 -0.16891,-0.90252 -0.35714,-0.71429 -0.18823,0.18823 -0.11905,0.83333 -0.35714,0.71429 -0.77841,-0.38921 0.59279,-0.47864 0,-1.07143 -0.49484,-0.49484 -1.07713,-0.72569 -1.42857,-1.42857 -0.10782,-0.21564 0.16509,-0.90634 0,-1.07143 -0.11905,-0.11905 -0.35715,0.5255 -0.35715,0.35714 0,-0.23809 0.10648,-0.50133 0,-0.71428 -0.0532,-0.10648 -0.35714,0.11904 -0.35714,0 0,-0.11905 0.27296,0.0842 0.35714,0 0.37647,-0.37647 0.71429,-0.89618 0.71429,-1.42858"
       id="path4895"
       inkscape:connector-curvature="0" />
    <path
       style="fill:#101010;stroke:none;stroke-width:1px;stroke-linecap:butt;stroke-linejoin:miter;stroke-opacity:1;fill-opacity:1"
       d="m 622.14286,286.29075 c -1.34315,0.94542 -2.43847,2.82638 -3.92857,3.57143 -0.21296,0.10648 -0.54593,-0.16836 -0.71429,0 -0.17857,0.17857 0.17857,0.89286 0,1.07143 -0.15913,0.15913 -1.42857,0.57372 -1.42857,1.07143 0,0.95238 0.83333,-1.07143 0.35714,0.35714 -0.25344,0.76034 -1.99145,3.49573 -2.85714,3.92857 -1.3243,0.66215 -2.90225,0.25313 -4.28571,0.71429 -1.84127,0.61375 -1.69336,1.38239 -2.5,1.78571 -0.86707,0.43353 -5.27886,1.35028 -5.71429,1.78572 -1.00023,1.00023 -1.77904,2.1295 -2.5,3.57143 -0.39723,0.79445 -0.35223,2.13794 -1.07143,2.85714 -0.42323,0.42323 -1.16719,0.81005 -1.42857,1.07143 -0.2381,0.23809 -0.47619,0.47619 -0.71429,0.71428 -0.0842,0.0842 0.11905,0.35715 0,0.35715 -0.11904,0 0.0842,-0.27297 0,-0.35715 -0.0842,-0.0842 -0.35714,0.11905 -0.35714,0 0,-0.11904 0.47619,0 0.35714,0 -1.19522,0 -1.65014,0.431 -2.5,0.71429 -0.66596,0.22199 -0.97599,1.12685 -1.42857,1.42857 -0.60572,0.40381 -2.08224,-0.48629 -2.85714,-0.35714 -1.19565,0.19927 -2.36365,0.47273 -3.57143,0.71428 -0.3319,0.0664 -2.19536,-0.30464 -2.5,0 -0.68207,0.68207 -1.87429,1.13049 -2.85714,1.78572 -0.28017,0.18677 -0.37757,0.71428 -0.71429,0.71428 -0.11905,0 0.0842,-0.44132 0,-0.35714 -0.18823,0.18823 -0.16891,0.52605 -0.35714,0.71429 -0.0842,0.0842 0.0842,-0.27297 0,-0.35715 -0.25254,-0.25254 -0.71429,0 -1.07143,0 -0.79764,0 -2.10671,0.25015 -2.85714,0 -1.22063,-0.40687 -2.22525,-1.69413 -3.57143,-2.14285 -0.33882,-0.11294 -0.71429,0 -1.07143,0 -0.35714,-0.35715 -0.63833,-0.81157 -1.07143,-1.07143 -0.34801,-0.20881 -1.85662,-0.0709 -2.14285,-0.35715 -0.51509,-0.51508 -1.53594,-1.30368 -2.5,-1.78571 -1.33559,-0.66779 -3.48697,-0.62982 -4.64286,-1.78571 -0.37646,-0.37647 -0.28837,-1.10914 -0.71429,-1.42858 -0.37128,-0.96483 -1.28064,-0.0204 -1.78571,-0.35714 -0.22149,-0.14766 -0.2381,-0.47619 -0.35714,-0.71428 -0.4762,-0.11905 -0.98955,-0.13763 -1.42858,-0.35715 -0.10648,-0.0532 0.11905,-0.35714 0,-0.35714 -0.16836,0 -0.18878,0.35714 -0.35714,0.35714 -0.37646,0 -0.0909,-0.80523 -0.35714,-1.07143 -0.12097,-0.12097 -0.81129,-0.91534 -1.07143,-1.07142 -0.62094,-0.37257 -1.54034,0.0445 -2.14286,-0.35715 -0.1981,-0.13207 0.10648,-0.50132 0,-0.71428 -0.0565,-0.11308 -1.76966,-1.78572 -1.78571,-1.78572 -0.2662,0 -0.59524,0.59524 -0.71429,0.35715 -0.21296,-0.42592 0.39622,-1.16443 0,-1.42858 -0.82261,-0.5484 -2.53945,0.27825 -3.21428,-1.07142 -0.21296,-0.42592 0.15058,-0.97682 0,-1.42858 -0.31772,-0.95314 -1.55813,-0.84383 -2.14286,-1.42857 -0.0578,-0.0578 -0.31385,-1.04978 -0.35714,-1.07143 -1.75638,-0.87818 0.3179,0.47686 -0.71429,-1.07142 -0.29532,-0.44299 -1.10913,-0.28837 -1.42857,-0.71429 -0.71925,-0.95899 -0.93062,-2.71634 -1.78571,-3.57143 -0.18824,-0.18823 -0.59524,-0.11905 -0.71429,-0.35714 -0.0753,-0.15059 0.28185,-0.20656 0.35714,-0.35714 0.36951,-0.73901 -0.51096,-0.20332 0,-0.71429 0.0605,-0.0605 -0.70573,-1.76861 -0.71428,-1.78571 -0.0458,-0.0917 -0.98857,-0.3 -1.07143,-0.71429 -0.0651,-0.32548 0.27054,-2.45132 0,-2.85714 -1.26984,-1.90476 -0.27778,1.30952 -1.07143,-1.07143 -0.0355,-0.10644 0.0272,-1.42857 0,-1.42857 -0.65904,0 -1.18078,0.44091 -1.78571,-1.07143 -0.13264,-0.3316 0.13263,-0.73983 0,-1.07143 -0.12506,-0.31263 -0.63262,-0.38762 -0.71429,-0.71429 -0.0646,-0.25825 0.35714,-0.44808 0.35714,-0.71428 0,-0.33672 -0.5637,-0.41312 -0.71428,-0.71429 -0.0953,-0.19064 0.0953,-0.52364 0,-0.71428 -0.52078,-1.04155 -1.61698,-1.80539 -2.14286,-2.85715 -0.61905,-1.23809 0.61905,-3.40476 0,-4.64285 -0.0753,-0.15059 -0.35714,-0.18879 -0.35714,-0.35715 0,-0.26619 0.35714,-0.44808 0.35714,-0.71428 0,-0.7136 -0.85864,-0.14435 -1.07143,-0.35714 -0.17857,-0.17858 0.17857,-0.89286 0,-1.07143 -0.11496,-0.11497 -1.07143,-0.65508 -1.07143,-0.71429 0,-0.2662 0.54538,-0.90252 0.35715,-0.71428 -0.18824,0.18823 -0.16892,0.52605 -0.35715,0.71428 -0.16836,0.16836 -0.23809,-0.71428 0,-0.71428 0.11905,0 0,0.23809 0,0.35714 0,1.15366 -1.07143,1.32737 -1.07143,1.42857 0,0.36013 0.66921,0.24619 0.35715,0.71429 -0.27488,0.41231 -3.57143,4.50042 -3.57143,4.64285 0,0.34705 0.89225,-0.11824 0,1.07143 -0.57855,0.7714 -1.51066,1.3177 -1.78572,2.14286 -0.67422,2.02268 -3.00523,0.45819 -4.28571,0.71428 -0.33018,0.066 -0.38762,0.63262 -0.71429,0.71429 -0.0424,0.0106 -1.47253,-0.35714 -1.78571,-0.35714 -1.46169,0 1.051,-0.0842 -0.71429,0.35714 -1.10319,0.2758 -2.26905,-0.35714 -3.21428,-0.35714 -0.60703,0 -1.17869,0.35714 -1.78572,0.35714 -0.79591,0 -2.01991,-0.57475 -2.85714,-0.71429 -0.77173,-0.12862 -2.46989,0.3722 -3.21428,0 -0.69656,-0.34827 -0.77843,-0.5464 -1.78572,-0.71428 -2.26784,-0.37798 0.14777,0.25616 -2.14286,0.71428 -0.14774,0.0296 -5.44788,-0.64768 -5.71428,-0.71428 -1.65154,-0.41289 -2.38878,0.97092 -3.92857,0.71428 -0.83034,-0.13839 -1.68334,-0.15297 -2.5,-0.35714 -0.5165,-0.12912 -0.90153,-0.63899 -1.42857,-0.71428 -0.99502,-0.14215 -2.43529,0.73585 -3.57143,0.35714 -0.25254,-0.0842 -0.52606,-0.16891 -0.71429,-0.35714 -0.0842,-0.0842 0.11905,-0.35715 0,-0.35715 -0.66577,0 -1.248,1.24402 -0.71428,-0.35714 0.14179,-0.42537 -2.14287,-1.07142 -1.42858,-2.5 0.50543,-1.01086 0.99321,0.57482 1.42858,0.35714 0.23809,-0.11904 0.16891,-0.52605 0.35714,-0.71428 0.16836,-0.16836 -0.2381,0.71428 0,0.71428 2.62498,0 -0.0926,-0.80687 0.71428,0 0.57409,0.57409 2.05453,0.44929 2.14286,0.71429 0.15522,0.46566 -0.70422,1.08149 -0.35714,1.42857 0.2662,0.2662 0.80523,-0.62334 1.07143,-0.35714 0.2662,0.2662 0,0.95238 0.35714,1.07143 0.45175,0.15058 0.97682,-0.15059 1.42857,0 0.64032,0.21344 1.04254,0.71428 1.78572,0.71428 0.40156,0 1.36062,-0.50174 1.78571,-0.71428 0.36706,-0.18353 0.82373,0.35714 1.07143,0.35714 0.16836,0 0.19742,-0.41038 0.35714,-0.35714 0.31944,0.10648 0.37757,0.71428 0.71429,0.71428 0.28742,0 4.22626,-3.21428 5,-3.21428 0.23809,0 -0.16836,0.54592 0,0.71428 0.18823,0.18823 0.44808,-0.35714 0.71428,-0.35714 1.1775,0 1.51638,0.35714 2.5,0.35714 0.37646,0 0.69497,-0.35714 1.07143,-0.35714 0.63139,0 2.6646,0.34783 3.21429,0.71428 0.32016,0.21344 -0.53696,0.71429 0.35714,0.71429 0.16836,0 0.20656,-0.28185 0.35714,-0.35714 0.33014,-0.16507 0.9063,0.31586 1.07143,0.35714 0.92395,0.23099 1.92744,-0.2066 2.85714,0 0.41901,0.0931 0.65872,0.59637 1.07143,0.71429 1.72438,0.49267 2.72651,-0.35715 3.57143,-0.35715 0.92996,0 2.86939,0.33266 3.21429,-0.35714 0.38321,-0.76642 0.39001,-0.0164 1.07143,-0.35714 0.46619,-0.2331 -0.51972,-2.14286 2.85714,-2.14286 0.72414,0 1.41872,-0.35714 2.14286,-0.35714 0.26619,0 0.71428,0.62334 0.71428,0.35714 0,-0.33672 -0.71428,-0.37757 -0.71428,-0.71429 0,-0.11904 0.27296,0.0842 0.35714,0 0.18823,-0.18823 0.19742,-0.50132 0.35714,-0.71428 0.20203,-0.26938 0.52751,-0.43412 0.71429,-0.71429 0.066,-0.099 -0.11905,-0.35714 0,-0.35714 0.47619,0 0.23809,0.95238 0.71428,0 0.31206,-0.62412 -0.35714,-0.13349 -0.35714,-0.71429 0,-0.26619 0.27296,-0.46174 0.35714,-0.71428 0.34517,-1.03549 -0.73293,-1.72979 -0.35714,-2.85714 -0.64673,-1.4942 0.5637,-0.41312 0.71429,-0.71429 0.10647,-0.21296 -0.16836,-0.54593 0,-0.71429 0.11904,-0.11904 0.35714,0.18879 0.35714,0.35715 0,0.16836 -0.35714,0.18878 -0.35714,0.35714 0,0.2662 0.59523,0.11905 0.71428,0.35714 0.17857,0.35715 -0.35714,0.71429 0,1.07143 0.95238,0.95238 -0.23809,-1.90476 0.71429,0 0.0807,0.16148 -0.0665,1.78572 0,1.78572 0.0921,0 1.07143,-1.26852 1.07143,0 0,0.29078 -0.83089,1.66911 -0.35715,2.14285 0.0842,0.0842 0.35715,-0.11904 0.35715,0 0,0.2662 -0.62335,0.71429 -0.35715,0.71429 0.16836,0 0.2381,-0.47619 0.35715,-0.35714 0.34589,0.3459 -0.22998,1.6829 0,2.14285 0.28374,0.5675 0.71428,1.04252 0.71428,1.78572 0,0.94771 0.49395,0.42554 1.07143,0.71428 0.10648,0.0532 0,0.2381 0,0.35715 0.11905,0.11904 0.20656,0.28185 0.35714,0.35714 0.12676,0.0634 1.03847,0.29122 1.07143,0.35714 0.10648,0.21296 -0.16836,0.54593 0,0.71429 0.95238,0.95238 -0.23809,-1.90476 0.71429,0 0.11904,0.23809 -0.2381,0.95238 0,1.07143 0.23809,0.11904 0.46174,-0.44133 0.71428,-0.35715 0.64789,0.21597 0.006,1.78572 0.71429,1.78572 0.16836,0 0.18878,-0.35715 0.35714,-0.35715 0.49085,0 -0.10851,1.27336 0.35714,1.42858 0.25254,0.0842 0.71429,-0.62335 0.71429,-0.35715 0,0.6984 -1.2743,1.02283 -0.71429,2.14286 0.2892,0.5784 0.87667,1.20143 1.07143,1.78571 0.0753,0.22588 -0.16836,0.54593 0,0.71429 0.62861,0.6286 1.07434,-0.34549 1.42857,1.07143 0.0866,0.34648 -0.15972,0.75199 0,1.07143 0.0753,0.15058 0.35715,0.18878 0.35715,0.35714 0,0.11905 -0.2381,0 -0.35715,0 0,0.2381 -0.0753,0.48841 0,0.71429 0.24738,0.74212 1.03173,1.38886 1.42858,1.78571 0.50541,0.50541 -0.28221,2.50878 0,3.21429 0.23809,0.59523 0.42758,1.2123 0.71428,1.78571 0.11905,0.2381 0.59524,0.11905 0.71429,0.35714 0.31417,0.62836 0.0307,0.77559 0.35714,1.42857 0.25311,0.50623 1.1713,0 1.42857,0 0.2381,0 -0.10648,0.50133 0,0.71429 0.36558,0.73115 0.62459,0.0593 1.07143,0.35714 1.13568,0.75712 0.20394,1.53055 1.42857,2.14286 0.21296,0.10648 0.50133,-0.10648 0.71429,0 0.20779,0.1039 -0.0945,1.42857 0.35714,1.42857 0.16836,0 0.18878,-0.35714 0.35714,-0.35714 0.51623,0 1.52422,1.52421 1.78572,1.78571 0.16836,0.16836 0.6078,-0.21296 0.71428,0 0.10648,0.21296 -0.16836,0.54593 0,0.71429 0.11905,0.11905 0.18879,-0.35714 0.35715,-0.35714 0.4691,0 0.58366,0.94081 0.71428,1.07142 0.33604,0.33605 1.15368,0.79654 1.78572,1.42858 0.26619,0.26619 0.80523,0.0909 1.07142,0.35714 0.30352,0.30351 0.31576,0.91201 0.71429,1.07143 0.34954,0.13981 0.71429,-0.47619 1.07143,-0.35715 0.47916,0.15972 0.60248,0.88385 1.07143,1.07143 0.24716,0.0989 0.49279,-0.5048 0.71428,-0.35714 0.31324,0.20882 0.0439,0.86261 0.35715,1.07143 0.4084,0.27227 0.93772,-0.35714 1.42857,-0.35714 0.16836,0 -0.35715,0.18878 -0.35715,0.35714 0,0.37646 0.80523,0.0909 1.07143,0.35714 0.18823,0.18823 0.98049,0.35714 0.71429,0.35714 -0.11905,0 0,-0.47619 0,-0.35714 0,1.52733 1.16364,1.52079 2.14286,2.5 0.12466,0.12466 -0.14825,0.99731 0,1.07143 0.21295,0.10648 0.4884,-0.0753 0.71428,0 0.47057,0.15686 0.72038,1.43467 1.07143,1.78571 0.28693,0.28694 1.67272,0.9539 2.14286,1.07143 0.47619,0.11905 0.98954,-0.57665 1.42857,-0.35714 0.0593,1.57484 -0.40038,0.51409 0.71428,1.07143 0.10648,0.0532 -0.10648,0.3039 0,0.35714 2.1858,1.0929 -0.84625,-1.11542 1.42858,-0.35714 0.31943,0.10648 0.47619,0.47619 0.71428,0.71428 0.0842,0.0842 -0.11905,0.35715 0,0.35715 0.91848,0 1.58152,-0.35715 2.5,-0.35715 0.47894,0 1.30677,0.71429 1.78572,0.71429 0.26619,0 0.44808,-0.35714 0.71428,-0.35714 0.47619,0 0.95238,1.42857 1.42857,1.42857 0.11905,0 -0.0842,-0.27296 0,-0.35714 0.25254,-0.25254 0.72122,-0.07 1.07143,0 1.57316,0.31463 1.06053,-0.27059 2.14286,0 0.41641,0.1041 1.50066,0.71428 1.07143,0.71428 -0.33573,0 1.30975,-0.71428 1.42857,-0.71428 0.63901,0 4.799,0.55813 5.35714,0 0.0842,-0.0842 -0.10648,-0.30391 0,-0.35715 0.76777,-0.38388 5.64363,0.0707 6.07143,-0.35714 1.2955,-1.2955 2.2745,-1.39729 3.92857,-2.5 1.44299,-0.96199 0.61902,-2.3571 1.42857,-3.57143 0.54563,-0.81843 2.33506,-1.48344 3.21429,-2.14286 1.0693,0.89324 0.61853,-0.97567 0.71428,-1.07142 1.86547,-1.86547 4.75159,-0.41151 6.78572,-1.42858 0.21296,-0.10648 -0.16836,-0.54592 0,-0.71428 0.5403,-0.5403 1.18889,-1.92762 2.14286,-2.5 0.32281,-0.19369 0.71428,-0.2381 1.07142,-0.35714 0.35715,-0.35715 0.63833,-0.81157 1.07143,-1.07143 0.30625,-0.18375 0.81889,0.25254 1.07143,0 0.44048,-0.44048 -0.32143,-0.67857 -0.35714,-0.71429 -0.29794,-0.29794 0.60963,-4.07641 0.71428,-4.28571 0.44351,-0.88702 1.58311,-1.66037 2.14286,-2.5 0.87963,-1.31944 -2.02014,1.30585 0.35714,-1.07143 C 618.34773,289.01445 620,289.30813 620,288.43361"
       id="path4897"
       inkscape:connector-curvature="0" />
    <path
       style="fill:#101010;stroke:none;stroke-width:1px;stroke-linecap:butt;stroke-linejoin:miter;stroke-opacity:1;fill-opacity:1"
       d="m 496.42857,288.07647 c 0.47619,0 1.42857,-0.47619 1.42857,0 0,0.47619 -1.90476,0 -1.42857,0 0.71429,0 1.43829,-0.11743 2.14286,0 0.11743,0.0196 -0.0532,0.25066 0,0.35714 0.15058,0.30117 0.43412,0.52751 0.71429,0.71429 0.79597,0.53065 1.43135,0.001 2.14285,0.35714 1.143,0.5715 1.20554,1.48833 1.42857,1.78571 1.16295,1.55059 2.00295,0.64433 2.85715,1.07143 0.33671,0.16836 0.35714,0.69497 0.35714,1.07143 0,0.11905 -0.47619,0 -0.35714,0 1.72119,0 0.85658,0.28459 1.42857,1.42857 0.11241,0.22482 1.27833,0.28202 1.42857,0.35714 0.71429,0.35715 1.07143,1.42858 1.78571,1.78572 0.21296,0.10648 0.58222,-0.19811 0.71429,0 0.19811,0.29716 -0.15972,0.75199 0,1.07143 0.11905,0.23809 0.59524,0.11904 0.71429,0.35714 0.0753,0.15058 -0.2381,0.47619 -0.35715,0.35714 -0.18823,-0.18823 0.52606,-0.54537 0.71429,-0.35714 0.16836,0.16836 -0.2381,0.71429 0,0.71429 0.2662,0 0.44809,-0.35715 0.71428,-0.35715 0.11905,0 -0.066,0.25809 0,0.35715 0.18678,0.28016 0.47619,0.47619 0.71429,0.71428 1.32743,1.32743 -1.62668,-1.75875 0.71429,2.14286 0.12249,0.20416 0.51012,-0.1225 0.71428,0 1.42303,0.85381 1.81681,2.35582 3.57143,2.85714 0.69198,0.19771 1.07713,-0.34574 1.42857,0.35714 0.17484,0.34968 0.52571,0.69428 0.71429,1.07143 0.14867,0.29736 -0.22654,1.20203 0,1.42857 0.87413,0.87414 -0.23693,-2.5566 1.07143,0.71429 0.59873,1.49684 -0.29983,1.48589 1.07142,2.85714 0.33672,0.33672 0,0.95238 0,1.42857 0,0.2381 -0.16836,0.54593 0,0.71429 0.0842,0.0842 0.35715,-0.11905 0.35715,0 0,0.16836 -0.47619,0.2381 -0.35715,0.35714 1.11807,1.11807 1.52576,-1.65451 1.07143,1.07143 -0.0932,0.55945 0.55627,7.14286 0.71429,7.14286 0.16836,0 0.35714,-0.5255 0.35714,-0.35714 0,0.26619 -0.35714,0.44808 -0.35714,0.71428 0,0.11905 0.31949,-0.11294 0.35714,0 0.26219,0.78658 0.21451,2.35847 0.35714,3.21429 0.30015,1.80085 0,3.87391 0,5.71428 0,1.39454 -0.091,7.05873 -0.35714,7.85715 -0.0532,0.15971 -0.35714,0.18878 -0.35714,0.35714 0,0.16836 0.28185,0.20656 0.35714,0.35714 0.47783,0.95566 0,12.22312 0,13.92857 0,0.52615 -0.60014,2.97129 -0.35714,3.21429 0.0973,0.0973 0.71428,0.72213 0.71428,1.07143 0,0.58441 -0.77004,1.67421 -0.35714,2.5 0.0753,0.15058 0.35714,0.18878 0.35714,0.35714 0,0.16836 -0.3039,0.19742 -0.35714,0.35714 -0.25243,0.75729 0.19218,1.12587 0.35714,1.78572 0.3861,1.54437 -0.35714,3.69105 -0.35714,5.35714 0,0.2381 0.10648,0.50133 0,0.71429 -0.0753,0.15058 -0.47619,0.23809 -0.35714,0.35714 0.17857,0.17857 0.53571,0.17857 0.71428,0.35714 0.56718,0.56718 0.1032,-1.07143 0,-1.07143 -0.16836,0 -0.23809,0.47619 -0.35714,0.35715 -0.16836,-0.16836 0.10648,-0.50133 0,-0.71429 -0.11905,-0.2381 -0.59524,-0.11905 -0.71428,-0.35714 -0.14868,-0.29736 0.22654,-1.20203 0,-1.42857 -0.94116,-0.94116 -0.29339,-2.66588 -0.71429,-3.92858 -0.16164,-0.48493 -1.49746,-0.64539 -0.71429,-1.42857 0.0842,-0.0842 0.27297,0.0842 0.35715,0 0.38201,-0.38202 -0.003,-1.78278 0,-1.78571 0.0999,-0.0999 0.71428,-0.69369 0.71428,-1.07143 0,-0.2477 -0.54067,-0.70437 -0.35714,-1.07143 0.0845,-0.16893 0.71429,-0.90549 0.71429,-1.07143 0,-0.11904 -0.35715,0.11905 -0.35715,0 0,-0.16836 0.35715,-0.18878 0.35715,-0.35714 0,-0.16836 -0.35715,-0.18878 -0.35715,-0.35714 0,-0.67666 0.86406,-1.22121 1.07143,-1.42857 0.47634,-0.47634 -1.07832,-6.06454 -0.35714,-6.78572 0.0842,-0.0842 0.27296,0.0842 0.35714,0 0.0395,-0.0395 0,-4.80811 0,-5.35714 0,-0.14706 0.0945,-0.97689 0,-1.07143 -0.6204,-0.6204 -0.71428,-3.28621 -0.71428,-4.64286 0,-0.59357 -0.0552,-7.08771 0,-7.14285 0.0842,-0.0842 0.27296,0.0842 0.35714,0 0.62978,-0.62978 -0.41431,-3.09996 0,-3.92858 0.0753,-0.15058 0.35714,-0.18878 0.35714,-0.35714 0,-0.11905 -0.3039,0.10648 -0.35714,0 -0.55392,-1.10783 0.35714,-2.4368 0.35714,-3.92857 0,-2.02381 0,-4.04762 0,-6.07143 0,-0.59524 0,-1.19047 0,-1.78571 0,-0.2381 0.2381,-0.71429 0,-0.71429 -0.33672,0 -0.71428,0.37757 -0.71428,0.71429 1.03883,-0.34772 0.71428,-1.21692 0.71428,-2.14286 0,-0.48282 -0.35714,-1.16597 -0.35714,-1.42857 0,-0.11905 0.27296,0.0842 0.35714,0 0.11481,-0.11481 -0.0475,-2.23783 -0.35714,-2.85714 -0.47619,-0.95239 0.47619,-2.61905 0,-3.57143 -0.4175,-0.83499 -0.22271,0.76044 -0.71429,-0.71429 -0.0753,-0.22588 0.2381,-0.71428 0,-0.71428 -0.57481,0 -0.2874,1.07142 -0.35714,1.07142 -0.2381,0 -0.2381,-0.71428 0,-0.71428 0.11905,0 0.11905,0.35714 0,0.35714 -0.16836,0 -0.2381,-0.23809 -0.35714,-0.35714 -0.0628,-0.0628 -0.7001,-0.71429 -0.71429,-0.71429 -0.68954,0 -2.14286,0.45327 -2.14286,0 0,-0.13947 0.66921,-0.40222 0.35715,-0.71428 -0.2662,-0.2662 -0.90307,-0.0204 -1.07143,-0.35715 -0.68652,-1.37303 0.52201,-0.19227 -0.71429,-1.42857 -0.16836,-0.16836 0.10648,-0.50132 0,-0.71428 -0.0753,-0.15059 -0.35714,-0.18879 -0.35714,-0.35715 0,-0.11904 0.44132,0.0842 0.35714,0 -0.77992,-0.77991 -0.57986,-0.0742 -1.42857,-0.35714 -0.47916,-0.15972 -0.61967,-0.84555 -1.07143,-1.07143 -0.21296,-0.10648 -0.54592,0.16836 -0.71428,0 -0.16836,-0.16836 0.16836,-0.54592 0,-0.71428 -0.55942,-0.55942 -1.42857,-0.0682 -1.42857,-0.35715 0,-0.16835 0.35714,-0.18878 0.35714,-0.35714 0,-0.12241 -1.4135,-0.34961 -1.42857,-0.35714 -0.2381,-0.11905 -0.091,-0.71429 -0.35715,-0.71429 -0.26619,0 -0.44808,0.35715 -0.71428,0.35715 -0.11905,0 0.10648,-0.30391 0,-0.35715 -0.75717,-0.37858 -1.16442,0.35715 -1.78572,0.35715 -0.33671,0 -0.41311,-0.56371 -0.71428,-0.71429 -0.45521,-0.2276 -1.28993,0.12395 -1.78572,0 -0.67023,-0.16756 -1.23203,-0.43745 -1.78571,-0.71429 -0.0655,-0.0328 -1.07143,0.0262 -1.07143,0 0,-0.16835 0.35714,-0.18878 0.35714,-0.35714 0,-0.042 -1.0189,0.0525 -1.07142,0 -0.21344,-0.21344 0.38602,-0.71428 -0.35715,-0.71428 -0.58079,0 -0.0902,0.6692 -0.71428,0.35714 -0.65777,-0.32888 -2.5,-1.85451 -2.5,-2.5 0,-0.11905 0.35714,0.11905 0.35714,0 0,-0.16836 -0.18878,-0.35714 -0.35714,-0.35714 -0.11905,0 0.0842,0.27296 0,0.35714 -0.27537,0.27536 -0.74183,-0.38469 -1.42857,-1.07143"
       id="path4905"
       inkscape:connector-curvature="0"
       inkscape:export-xdpi="84.121017"
       inkscape:export-ydpi="84.121017" />
    <path
       style="fill:#1a1a1a;stroke:none;stroke-width:1px;stroke-linecap:butt;stroke-linejoin:miter;stroke-opacity:1;fill-opacity:1"
       d="m -171.72593,334.14372 c -11.10925,-0.84857 -16.52045,8.74934 -27.27412,6.06092 -1.86568,-0.46642 -6.70948,-2.2011 -9.09137,-1.01015 -2.22937,1.11468 -5.29493,7.43422 -10.10153,6.06091 -2.66981,-0.7628 -5.59771,-0.77855 -8.08122,-2.0203 -0.66962,-0.33482 -2.81234,-2.97593 -3.03046,-3.03046 -4.60548,-1.15137 -8.58796,2.9046 -13.13198,4.04061 -0.97999,0.245 -2.07214,-0.31944 -3.03046,0 -0.71428,0.23809 -0.33672,1.68359 -1.01015,2.0203 -2.62155,1.31078 -5.51277,2.75639 -8.08122,4.04061 -3.78731,1.89366 -20.10584,0 -24.24366,0 -5.24744,0 -36.13967,-0.22582 -37.37565,1.01016 -2.29876,2.29876 -6.51417,4.26724 -10.10152,6.06091 -2.0629,1.03145 -4.35949,0.15944 -6.06092,1.01015 -0.30117,0.15059 0.31944,0.90368 0,1.01016 -0.95831,0.31943 -2.07214,-0.31944 -3.03046,0 -0.37493,0.12498 -1.56247,2.57262 -2.0203,3.03045 -0.96907,0.96908 -2.01892,-0.001 -5.05076,3.03046 -1.80018,1.80018 -3.80234,3.92147 -6.06092,5.05076 -0.60234,0.30117 -1.54411,-0.47619 -2.0203,0 -0.73617,0.73618 -1.02397,3.04428 -2.02031,4.04061 -0.94356,0.94357 -4.1072,1.07675 -5.05076,2.02031 -0.5324,0.5324 -0.47776,1.48791 -1.01015,2.0203 -0.17605,0.17605 -11.50075,1.63124 -12.12183,1.01016 -1.98544,-1.98543 2.50668,-4.52699 3.03045,-5.05077 2.79533,-2.79532 6.51592,-19.58781 9.09138,-25.25381 3.91464,-8.61221 4.48317,-10.79414 2.0203,-18.18274 -0.50393,-1.51179 0.38726,-3.50173 0,-5.05077 -0.74393,-2.97573 -1.97341,-1.19772 -1.01015,-5.05076 1.08492,-4.33967 9.00686,-4.96625 11.11168,-7.07107 2.97256,-2.97256 1.48028,-16.63257 3.03045,-18.18274 1.37354,-1.37354 7.85766,-0.2622 10.10153,-1.01016 9.70941,-3.23647 19.33027,-4.40022 29.29442,-6.06091 3.52224,-0.58704 9.9656,-4.21546 14.14214,-5.05076 2.18233,-0.43647 15.20779,-2.33853 16.16244,-2.02031 0.71429,0.2381 -1.54255,1.48791 -1.01015,2.02031 0.27023,0.27023 10.1806,2.66738 12.12183,2.0203 1.83923,-0.61308 3.21152,-1.40723 5.05076,-2.0203 1.51523,-0.50508 3.53553,0.50507 5.05076,0 0.31944,-0.10648 -0.30117,-0.85957 0,-1.01016 4.90431,-2.45215 17.59294,1.88019 23.23351,0 2.72508,-0.90836 4.65797,-3.07537 7.07107,-4.04061 0.52903,-0.21161 14.39511,1.01016 17.17259,1.01016 2.82378,0 21.21321,-0.85498 21.21321,-3.03046"
       id="path4907"
       inkscape:connector-curvature="0" />
    <path
       style="fill:#1a1a1a;stroke:none;stroke-width:1px;stroke-linecap:butt;stroke-linejoin:miter;stroke-opacity:1;fill-opacity:1"
       d="m -365.67522,201.81374 c 1.34687,-0.33672 2.67925,-1.28243 4.04061,-1.01015 1.40083,0.28016 1.67519,2.5787 3.03046,3.03045 0.64546,0.21516 6.96704,1.81227 7.07106,2.02031 0.80018,1.60035 -1.49696,3.03046 2.02031,3.03046 2.18866,0 -4.71405,-4.37733 2.0203,-1.01016 0.30117,0.15059 -0.23809,0.77206 0,1.01016 2.64066,2.64065 2.22183,-0.20406 3.03046,3.03045 0.16333,0.65333 -0.47619,1.54412 0,2.02031 0.33672,0.33672 1.01015,-1.48634 1.01015,-1.01015 0,1.34804 -2.13068,4.38011 -1.01015,6.06091 1.3361,2.00415 2.96127,2.42159 4.04061,4.04061 0.37356,0.56033 -0.37355,1.45998 0,2.02031 2.4607,3.69104 1.47876,-1.08311 3.03046,2.0203 0.37681,0.75362 -0.60115,4.75019 0,5.05077 0.67343,0.33671 1.26738,-1.01016 2.0203,-1.01016 4.41189,0 0.41996,1.43011 2.02031,3.03046 0.98169,0.98169 2.88546,0.24005 4.04061,1.01015 1.21218,0.80813 1.61624,2.42437 3.03046,3.03046 3.04868,1.30658 5.30711,1.64341 8.08122,3.03046 1.34687,0.67343 3.70389,-0.67344 5.05076,0 1.55378,0.77689 5.90162,6.69906 9.09137,9.09137 4.48748,3.36561 12.79529,1.88563 18.18275,4.04061 2.77214,1.10886 6.04009,3.02352 9.09137,4.04061 1.62882,0.54294 3.83671,-0.2039 5.05077,1.01015 3.32951,3.32952 -2.85215,1.71331 5.05076,3.03046 2.08198,0.347 4.97399,1.53442 7.07107,1.01015 2.38368,-0.59592 1.48111,-1.65002 4.04061,-1.01015 1.84098,0.46025 4.18406,3.03046 6.06091,3.03046 1.0648,0 1.96566,-1.01015 3.03046,-1.01015 0.33672,0 -0.30117,0.85957 0,1.01015 0.99992,0.49996 4.16789,0.12728 5.05076,1.01015 1.10212,1.10212 0.79092,2.92084 3.03046,4.04061 0.30117,0.15059 -0.33672,-1.01015 0,-1.01015 1.6727,0 6.46961,3.97636 8.08122,5.05076 1.01015,0.67344 2.17199,1.16184 3.03046,2.02031 0.23809,0.23809 -0.33672,1.01015 0,1.01015 0.47619,0 0.53396,-1.01015 1.01015,-1.01015 3.17844,0 14.1872,11.15674 16.16244,13.13198 2.19748,2.19748 8.63036,4.12873 10.10153,7.07107 0.60609,1.21218 2.42436,1.81827 3.03045,3.03046 0.30117,0.60233 -0.60233,1.71913 0,2.0203 0.60234,0.30117 1.41797,-0.30117 2.02031,0 0.37155,0.18578 0,3.3904 0,4.04061 0,1.01015 1.01015,3.03046 0,3.03046 -0.33672,0 0.33672,-1.01015 0,-1.01015 -0.93794,0 -4.14623,1.56803 -5.05076,2.0203 -3.36077,1.68038 -14.9475,-0.70757 -19.1929,0 -3.07628,0.51272 -6.9948,0.38881 -10.10153,1.01015 -0.46694,0.0934 -0.53396,1.01016 -1.01015,1.01016 -4.18008,0 3.27556,-3.11216 -3.03046,-1.01016 -1.43994,0.47999 -1.45458,1.45459 -2.0203,2.02031 -1.10442,1.10441 -8.03498,0.3213 -10.10153,1.01015 -3.43348,1.1445 -18.88364,-1.47657 -23.23351,-2.0203 -8.43142,-1.05393 -29.74337,2.20737 -36.36549,0 -1.23058,-0.4102 -2.44907,-2.02031 -4.04061,-2.02031 -0.47619,0 -0.58423,0.7972 -1.01015,1.01015 -0.0672,0.0336 -12.18312,-0.69386 -13.13198,-1.01015 -1.34387,-0.44795 -4.6807,-2.0203 -6.06092,-2.0203 -0.47619,0 -0.53396,1.01015 -1.01015,1.01015 -4.44494,0 -16.15969,-3.03184 -20.20305,-1.01015 -0.42592,0.21296 -0.53397,1.01015 -1.01016,1.01015 -0.33671,0 0.33672,-1.01015 0,-1.01015 -2.69374,0 -1.68358,1.68358 -3.03045,3.03045 -1.34687,1.34687 -4.80155,-0.76093 -5.05077,-1.01015 -0.33671,-0.33672 -0.67343,0.67344 -1.01015,1.01015 -0.50404,0.50405 -4.2598,0 -5.05076,0"
       id="path4909"
       inkscape:connector-curvature="0"
       inkscape:export-xdpi="84.121017"
       inkscape:export-ydpi="84.121017" />
  </g>
</svg>
